<?xml version="1.0" standalone="no"?>
<!DOCTYPE svg PUBLIC "-//W3C//DTD SVG 20010904//EN"
 "http://www.w3.org/TR/2001/REC-SVG-20010904/DTD/svg10.dtd">
<svg version="1.0" xmlns="http://www.w3.org/2000/svg"
 width="1008.000000pt" height="1008.000000pt" viewBox="0 0 1008.000000 1008.000000"
 preserveAspectRatio="xMidYMid meet">
<metadata>
Created by potrace 1.14, written by Peter Selinger 2001-2017
</metadata>
<g transform="translate(0.000000,1008.000000) scale(0.100000,-0.100000)"
fill="#000000" stroke="none">
<path d="M4794 9082 c-15 -3 -954 -311 -1004 -330 -8 -3 -18 -4 -22 -4 -5 1
-8 -2 -8 -6 0 -5 -6 -9 -12 -9 -11 0 -3059 -1013 -3098 -1030 -8 -3 -21 -7
-28 -9 -7 -1 -89 -28 -183 -60 -198 -67 -238 -94 -260 -171 -16 -60 -14 -93
12 -154 24 -54 94 -125 134 -135 49 -12 110 3 299 75 104 39 195 71 203 71 7
0 13 4 13 8 0 5 6 9 13 9 12 0 226 78 372 136 17 6 32 12 35 13 3 0 14 4 25 8
11 5 63 24 115 43 52 19 110 42 128 50 18 8 42 15 52 16 11 1 20 5 20 9 0 4 3
7 8 6 6 -2 92 28 147 51 66 28 140 54 152 54 7 0 13 4 13 9 0 4 3 7 8 6 7 -3
83 23 127 42 11 5 101 39 200 75 224 83 277 103 339 127 27 11 66 21 86 23 79
6 201 -90 214 -170 3 -16 10 -59 16 -95 6 -36 15 -92 20 -126 5 -34 12 -67 14
-75 3 -8 7 -30 10 -49 5 -30 14 -78 31 -165 3 -11 7 -36 9 -55 3 -19 8 -46 11
-60 2 -14 7 -43 10 -65 3 -22 7 -51 9 -65 3 -14 8 -43 11 -65 4 -22 9 -50 11
-62 6 -33 10 -61 19 -118 4 -27 9 -59 12 -70 2 -11 6 -38 9 -60 3 -22 7 -51 9
-65 3 -14 8 -47 11 -75 3 -27 9 -66 14 -85 4 -19 11 -56 14 -81 4 -25 9 -59
13 -75 3 -16 6 -39 6 -51 1 -13 4 -23 8 -23 3 0 7 -64 7 -143 l1 -142 -32 -35
c-81 -87 -436 -593 -614 -875 -84 -134 -230 -377 -261 -435 -20 -36 -38 -67
-41 -70 -3 -3 -24 -40 -46 -82 -22 -42 -53 -101 -69 -130 -74 -137 -193 -378
-188 -378 4 0 3 -4 -3 -8 -5 -4 -22 -32 -37 -62 -29 -60 -101 -212 -103 -220
-2 -7 -18 -43 -63 -148 -22 -50 -37 -92 -34 -92 4 0 3 -4 -3 -8 -10 -7 -15
-19 -62 -147 -14 -38 -31 -83 -38 -100 -11 -27 -77 -219 -81 -237 -1 -5 -2 -9
-4 -10 -1 -2 -3 -10 -5 -18 -2 -8 -15 -53 -29 -100 -14 -47 -28 -100 -31 -119
-3 -19 -8 -38 -10 -41 -3 -4 -7 -25 -10 -46 -4 -22 -8 -47 -11 -56 -7 -24 -14
-58 -19 -98 -3 -19 -7 -51 -10 -70 -12 -83 -17 -163 -18 -285 -1 -154 6 -238
28 -320 8 -33 17 -67 19 -76 5 -18 60 -134 79 -164 29 -48 168 -174 237 -215
77 -46 204 -109 230 -115 8 -2 27 -8 43 -14 26 -10 39 -13 117 -28 41 -7 166
-8 195 -1 11 3 38 8 60 12 103 20 256 113 353 215 71 74 72 76 126 151 25 36
49 70 53 75 15 20 54 91 102 185 43 84 157 366 166 409 2 9 14 52 28 96 41
132 67 219 73 245 9 40 12 55 14 55 1 0 3 7 5 15 2 8 13 53 25 100 11 47 23
94 24 105 2 11 11 54 20 95 10 41 19 89 22 107 2 18 11 65 20 105 9 40 16 80
16 88 0 8 4 33 8 55 5 22 11 60 15 85 3 25 9 54 12 65 3 11 7 34 9 50 3 38 12
114 18 140 2 11 6 40 10 65 8 60 36 295 42 345 3 22 9 74 14 115 6 41 12 98
15 125 2 28 7 73 10 100 2 28 7 75 10 105 3 30 8 69 10 85 2 17 7 68 10 115 3
47 8 105 10 130 3 25 7 72 10 105 3 33 7 78 9 100 13 128 18 176 21 225 2 30
6 75 9 100 3 25 8 79 11 120 4 41 9 93 11 115 2 22 6 58 8 80 8 72 17 119 34
170 9 28 17 52 17 55 0 3 11 27 23 54 58 128 164 246 307 340 92 61 202 126
219 129 6 1 13 5 16 8 7 8 268 119 280 119 6 0 18 4 28 9 9 5 46 19 82 31 36
12 72 25 80 28 19 7 17 6 70 21 25 6 52 15 60 18 8 4 18 7 23 8 4 2 8 3 10 5
1 1 9 3 17 5 19 4 288 93 315 105 11 4 38 16 60 25 81 33 103 49 129 89 76
118 -25 298 -194 344 -51 14 -130 4 -191 -25 -35 -16 -68 -31 -74 -32 -5 -2
-15 -7 -21 -12 -20 -16 -604 -307 -604 -300 0 3 -4 1 -8 -5 -4 -6 -90 -52
-191 -103 -102 -50 -190 -96 -198 -102 -7 -6 -13 -9 -13 -6 0 6 -169 -80 -216
-109 -20 -12 -22 -9 -42 34 -74 170 -183 523 -206 672 -3 19 -8 46 -11 60 -3
14 -8 39 -10 55 -2 17 -7 46 -10 65 -3 19 -7 53 -10 75 -2 22 -7 63 -10 90
-20 182 -21 486 -1 668 4 33 7 36 36 42 13 2 44 11 70 20 26 9 56 17 67 19 11
3 43 12 69 21 27 9 56 18 64 20 8 2 37 11 64 20 26 9 56 18 65 20 9 2 44 13
79 24 34 10 62 17 62 15 0 -3 13 2 30 11 16 8 33 15 37 15 10 0 31 6 128 37
44 14 87 27 95 29 8 2 60 18 115 35 55 16 125 37 155 45 30 8 62 18 70 21 8 3
24 8 35 10 11 2 49 12 85 23 64 18 95 25 175 36 22 3 54 7 70 10 17 2 42 6 57
9 36 5 103 40 129 68 29 31 40 64 40 122 0 46 -24 161 -36 173 -6 6 -370 9
-401 4z m-1627 -4354 c-2 -376 -6 -694 -10 -708 -4 -14 -10 -41 -13 -60 -3
-19 -7 -43 -10 -52 -3 -9 -7 -27 -10 -40 -6 -27 -15 -69 -18 -83 -1 -5 -5 -19
-9 -30 -3 -11 -8 -31 -11 -45 -3 -14 -7 -34 -10 -45 -3 -11 -12 -49 -21 -85
-8 -36 -18 -72 -22 -80 -3 -8 -7 -22 -9 -30 -2 -8 -17 -62 -35 -120 -17 -58
-37 -125 -44 -150 -61 -207 -88 -291 -147 -465 -38 -110 -70 -207 -72 -215 -2
-8 -11 -31 -19 -50 -8 -19 -34 -82 -57 -140 -48 -118 -125 -280 -170 -355 -16
-27 -33 -57 -37 -65 -3 -8 -9 -17 -12 -20 -3 -3 -15 -21 -25 -40 -35 -63 -112
-153 -174 -202 -29 -24 -82 -50 -82 -41 0 4 -5 2 -11 -4 -19 -19 -99 12 -131
51 -10 12 -22 26 -27 32 -17 21 -43 78 -47 103 -17 110 -27 294 -27 451 0 166
6 300 13 300 3 0 5 24 5 53 1 28 5 81 9 117 4 36 10 80 11 98 2 18 6 41 9 50
3 9 8 40 11 67 4 28 9 59 13 70 3 11 5 28 3 38 -1 9 2 17 7 17 5 0 8 10 7 22
-1 19 12 84 51 241 2 9 6 25 8 35 2 9 11 42 20 73 9 31 18 65 20 75 3 11 10
33 16 49 6 17 13 37 15 45 9 43 114 336 140 395 29 64 53 122 66 158 7 20 17
37 21 37 4 0 7 3 6 8 -1 6 2 18 17 55 3 6 9 19 15 27 5 8 32 62 61 120 28 58
67 132 86 165 18 33 36 68 40 78 3 9 9 17 14 17 5 0 9 5 9 12 0 7 11 28 23 47
13 20 44 68 68 106 24 39 46 72 50 75 3 3 14 20 24 38 11 17 23 32 27 32 4 0
8 5 8 11 0 6 10 24 23 39 12 15 29 37 37 50 8 12 20 28 25 34 6 6 25 32 44 56
19 25 41 52 48 60 8 8 21 24 31 36 50 62 145 164 153 164 4 0 7 -307 6 -682z"/>
<path d="M7348 8276 c-1 -2 -39 -6 -83 -10 -81 -6 -225 -36 -279 -59 -34 -14
-210 -101 -242 -120 -26 -15 -107 -70 -114 -77 -3 -3 -25 -21 -50 -40 -97 -75
-218 -196 -305 -304 -16 -21 -34 -43 -40 -50 -5 -6 -26 -34 -44 -61 -19 -28
-38 -52 -41 -55 -10 -8 -114 -171 -159 -247 -99 -172 -227 -451 -307 -670 -45
-125 -67 -188 -64 -188 1 0 -5 -18 -14 -40 -28 -72 -121 -406 -131 -469 -2
-15 -7 -36 -10 -46 -3 -10 -8 -29 -10 -42 -3 -13 -10 -48 -16 -78 -5 -30 -12
-64 -13 -75 -9 -54 -17 -103 -20 -120 -5 -28 -14 -91 -21 -145 -4 -25 -8 -56
-10 -70 -9 -64 -18 -152 -32 -320 -10 -128 -10 -594 1 -700 4 -47 10 -101 11
-120 2 -19 6 -53 9 -75 3 -22 8 -54 10 -72 3 -18 7 -40 10 -50 3 -10 8 -38 11
-63 14 -96 92 -369 131 -457 8 -17 14 -34 14 -37 0 -12 94 -202 108 -218 8
-10 12 -18 8 -18 -21 0 148 -217 218 -279 22 -20 47 -43 56 -51 78 -76 347
-199 490 -224 19 -3 46 -8 60 -11 82 -18 284 -23 400 -11 41 4 91 9 110 11 19
2 35 4 35 5 0 1 11 3 25 6 34 6 180 34 205 40 11 2 65 18 120 34 55 17 107 32
115 34 8 1 28 8 43 14 16 7 32 12 36 12 11 0 288 114 331 136 19 10 41 19 48
20 7 1 18 7 25 12 7 6 57 34 112 62 125 65 135 71 255 145 136 83 342 229 495
353 297 238 570 531 740 793 37 57 76 116 86 131 11 15 19 31 19 36 0 4 13 29
30 55 16 26 27 47 24 47 -4 0 0 10 8 23 14 21 78 170 83 192 2 11 11 37 25 72
14 33 52 201 56 242 11 118 3 272 -18 356 -5 22 -12 52 -15 67 -8 40 -25 51
-59 36 -69 -30 -137 -95 -262 -248 -20 -25 -39 -47 -42 -50 -3 -3 -30 -36 -60
-75 -29 -38 -57 -71 -62 -73 -4 -2 -8 -10 -8 -17 0 -7 -4 -15 -8 -17 -4 -1
-49 -59 -100 -128 -50 -69 -96 -130 -100 -135 -5 -6 -38 -53 -73 -105 -35 -52
-66 -97 -69 -100 -3 -3 -39 -54 -80 -113 -41 -60 -91 -130 -110 -157 -19 -27
-55 -79 -80 -115 -25 -37 -56 -82 -70 -100 -14 -19 -41 -57 -60 -86 -19 -28
-43 -60 -52 -70 -10 -11 -19 -22 -20 -26 -1 -5 -6 -12 -10 -18 -5 -5 -50 -64
-100 -130 -51 -66 -96 -121 -100 -123 -4 -2 -8 -8 -8 -13 0 -24 -181 -220
-256 -277 -38 -28 -74 -57 -81 -62 -7 -6 -15 -10 -19 -10 -4 0 -21 -10 -38
-23 -36 -27 -179 -100 -251 -129 -64 -26 -194 -65 -238 -72 -18 -3 -40 -8 -48
-10 -8 -3 -32 -8 -54 -10 -22 -3 -62 -8 -90 -13 -27 -4 -76 -7 -107 -7 -32 -1
-58 -5 -58 -9 0 -5 -4 -6 -9 -3 -5 4 -54 8 -108 11 -54 3 -109 7 -123 10 -14
3 -38 7 -55 10 -56 9 -130 28 -146 36 -9 4 -27 10 -41 13 -39 7 -177 66 -243
105 -160 92 -305 224 -394 356 -79 118 -139 251 -177 395 -56 210 -53 420 11
743 3 15 7 39 10 55 3 15 7 36 10 48 3 12 7 39 11 60 7 43 11 67 14 74 1 3 2
8 1 12 0 4 6 36 13 70 8 35 18 83 21 108 4 25 8 50 9 55 3 10 12 59 21 105 4
27 10 55 25 135 5 28 11 61 14 75 2 14 7 36 10 50 3 14 8 38 11 54 2 16 9 52
14 80 6 28 12 65 15 81 4 27 11 62 33 170 3 17 6 40 6 53 1 12 5 22 10 22 4 0
6 4 3 8 -3 5 1 39 9 76 8 37 17 86 20 109 3 23 8 49 11 58 3 10 6 30 9 45 2
16 9 54 15 84 7 30 13 66 15 80 5 33 21 114 31 160 7 28 8 36 19 105 7 41 56
157 75 175 3 3 20 34 39 70 18 36 40 72 47 81 8 8 14 21 14 27 0 6 6 17 13 24
18 18 97 147 97 158 0 4 3 10 8 12 4 2 34 44 67 93 32 50 62 92 65 95 3 3 24
30 47 61 119 156 249 223 342 175 28 -15 95 -95 96 -114 1 -4 6 -17 13 -29 11
-20 38 -110 48 -163 3 -14 9 -42 15 -63 6 -21 12 -53 14 -70 2 -18 6 -43 9
-57 2 -14 7 -47 11 -75 3 -27 8 -63 10 -80 3 -16 7 -52 11 -80 3 -27 7 -66 10
-85 2 -19 6 -53 8 -75 2 -22 7 -56 11 -75 3 -19 7 -42 9 -50 17 -91 54 -163
96 -185 31 -16 100 -13 147 7 15 6 30 12 33 13 10 2 76 45 104 67 40 31 61 54
106 113 52 69 69 113 65 177 -3 52 -5 68 -25 158 -13 56 -19 87 -26 125 -3 17
-7 39 -9 50 -13 74 -18 102 -20 115 -1 8 -7 40 -13 70 -6 30 -14 66 -16 80 -2
14 -9 48 -15 75 -6 28 -13 61 -15 75 -18 102 -38 200 -46 225 -5 17 -11 44
-14 60 -5 27 -12 58 -29 131 -3 12 -8 38 -11 58 -3 20 -11 55 -17 78 -6 24
-10 51 -10 60 0 25 -7 27 -100 34 -46 3 -89 7 -96 9 -6 2 -13 2 -15 1z"/>
</g>
</svg>
