<svg width="263" height="263" viewBox="0 0 263 263" fill="none" xmlns="http://www.w3.org/2000/svg">
<path d="M131.5 0L139.847 12.1265L149.801 1.27975L156.38 14.45L167.746 5.09409L172.428 19.0517L184.986 11.3688L187.679 25.8421L201.184 19.9817L201.837 34.689L216.027 30.7652L214.626 45.4202L229.224 43.5093L225.797 57.8269L240.518 57.9661L235.133 71.6675L249.691 73.8542L242.451 86.6727L256.564 90.8643L247.61 102.55L261.002 108.665L250.509 118.992L262.92 126.911L251.092 135.676L262.28 145.245L249.347 152.28L259.094 163.313L245.308 168.479L253.425 180.761L239.054 183.958L245.382 197.25L230.707 198.416L235.123 212.459L220.428 211.572L222.848 226.093L208.419 223.169L208.794 237.886L194.913 232.982L193.236 247.608L180.172 240.819L176.476 255.07L164.484 246.529L158.84 260.126L148.154 250L140.673 262.68L131.5 251.165L122.327 262.68L114.846 250L104.16 260.126L98.5159 246.529L86.5244 255.07L82.8279 240.819L69.7645 247.608L68.0872 232.982L54.2062 237.886L54.5808 223.169L40.1524 226.093L42.5716 211.572L27.8766 212.459L32.2932 198.416L17.6177 197.25L23.9458 183.958L9.57533 180.761L17.6918 168.479L3.90611 163.313L13.653 152.28L0.720367 145.245L11.9079 135.676L0.0801086 126.911L12.4905 118.992L1.99779 108.665L15.3896 102.55L6.43607 90.8643L20.5485 86.6727L13.3086 73.8542L27.8671 71.6675L22.4816 57.9661L37.2027 57.8269L33.7765 43.5093L48.3737 45.4202L46.9734 30.7652L61.1627 34.689L61.8156 19.9817L75.3207 25.8421L78.0141 11.3688L90.5722 19.0517L95.2537 5.09409L106.62 14.45L113.199 1.27975L123.153 12.1265L131.5 0Z" fill="#E6DDE4"/>
<path d="M57.3807 144V118.545H72.109V120.634H59.7049V130.216H70.9531V132.304H59.7049V144H57.3807ZM88.363 136.704V124.909H90.5754V144H88.363V140.831H88.189C87.7416 141.808 87.0331 142.625 86.0637 143.279C85.0942 143.925 83.9093 144.249 82.509 144.249C81.2909 144.249 80.2096 143.983 79.265 143.453C78.3204 142.915 77.5788 142.127 77.0402 141.092C76.5016 140.056 76.2323 138.784 76.2323 137.276V124.909H78.4447V137.139C78.4447 138.631 78.8838 139.832 79.7622 140.744C80.6405 141.647 81.7674 142.098 83.1428 142.098C84.0046 142.098 84.8332 141.891 85.6286 141.477C86.4241 141.063 87.0787 140.458 87.5924 139.662C88.1061 138.859 88.363 137.873 88.363 136.704ZM98.6449 132.068V144H96.4325V124.909H98.5827V127.904H98.7816C99.229 126.927 99.9251 126.144 100.87 125.555C101.823 124.959 102.999 124.661 104.4 124.661C105.684 124.661 106.811 124.93 107.78 125.468C108.758 125.999 109.516 126.782 110.055 127.817C110.602 128.853 110.875 130.125 110.875 131.633V144H108.663V131.77C108.663 130.204 108.223 128.965 107.345 128.054C106.475 127.142 105.307 126.686 103.84 126.686C102.838 126.686 101.947 126.902 101.168 127.333C100.389 127.764 99.7718 128.385 99.3161 129.197C98.8686 130.001 98.6449 130.958 98.6449 132.068ZM127.005 144V118.545H141.733V120.634H129.329V130.216H140.577V132.304H129.329V144H127.005ZM152.385 144.435C151.233 144.435 150.181 144.211 149.228 143.764C148.275 143.308 147.517 142.654 146.953 141.8C146.39 140.938 146.108 139.894 146.108 138.668C146.108 137.723 146.286 136.928 146.642 136.282C146.999 135.635 147.504 135.105 148.159 134.691C148.813 134.276 149.588 133.949 150.483 133.709C151.378 133.469 152.364 133.282 153.441 133.15C154.51 133.017 155.413 132.901 156.151 132.801C156.896 132.702 157.464 132.545 157.853 132.329C158.243 132.114 158.438 131.766 158.438 131.285V130.838C158.438 129.537 158.048 128.513 157.269 127.768C156.499 127.014 155.388 126.637 153.938 126.637C152.563 126.637 151.44 126.939 150.57 127.544C149.708 128.149 149.103 128.862 148.755 129.682L146.655 128.924C147.086 127.88 147.682 127.047 148.445 126.425C149.207 125.796 150.06 125.344 151.005 125.071C151.95 124.789 152.907 124.648 153.876 124.648C154.605 124.648 155.363 124.743 156.151 124.934C156.946 125.125 157.684 125.456 158.363 125.928C159.042 126.392 159.593 127.043 160.016 127.88C160.439 128.708 160.65 129.761 160.65 131.037V144H158.438V140.98H158.301C158.036 141.543 157.642 142.09 157.12 142.62C156.598 143.151 155.944 143.586 155.156 143.925C154.369 144.265 153.445 144.435 152.385 144.435ZM152.683 142.409C153.86 142.409 154.879 142.148 155.741 141.626C156.602 141.104 157.265 140.412 157.729 139.55C158.201 138.68 158.438 137.723 158.438 136.679V133.92C158.272 134.078 157.994 134.218 157.605 134.343C157.224 134.467 156.78 134.579 156.275 134.678C155.778 134.769 155.281 134.848 154.783 134.914C154.286 134.981 153.839 135.039 153.441 135.088C152.364 135.221 151.444 135.428 150.682 135.71C149.92 135.992 149.335 136.381 148.929 136.878C148.523 137.367 148.32 137.997 148.32 138.767C148.32 139.927 148.735 140.826 149.563 141.464C150.392 142.094 151.432 142.409 152.683 142.409ZM173.992 144.398C172.286 144.398 170.798 143.971 169.53 143.118C168.271 142.264 167.293 141.096 166.597 139.613C165.901 138.129 165.553 136.439 165.553 134.542C165.553 132.627 165.905 130.925 166.61 129.433C167.322 127.942 168.308 126.773 169.568 125.928C170.827 125.075 172.29 124.648 173.955 124.648C175.231 124.648 176.387 124.897 177.423 125.394C178.459 125.883 179.312 126.575 179.983 127.469C180.663 128.356 181.089 129.392 181.263 130.577H179.026C178.794 129.5 178.235 128.58 177.348 127.817C176.47 127.047 175.351 126.662 173.992 126.662C172.774 126.662 171.697 126.993 170.761 127.656C169.825 128.31 169.091 129.226 168.561 130.403C168.039 131.571 167.778 132.926 167.778 134.467C167.778 136.016 168.035 137.388 168.549 138.581C169.062 139.766 169.783 140.694 170.711 141.365C171.648 142.036 172.741 142.372 173.992 142.372C174.838 142.372 175.608 142.214 176.304 141.9C177.009 141.576 177.597 141.121 178.069 140.532C178.55 139.944 178.873 139.244 179.039 138.432H181.276C181.11 139.584 180.7 140.611 180.045 141.514C179.399 142.409 178.558 143.113 177.522 143.627C176.495 144.141 175.318 144.398 173.992 144.398ZM193.537 124.909V126.836H184.427V124.909H193.537ZM187.273 120.335H189.498V139.016C189.498 139.811 189.634 140.437 189.908 140.893C190.181 141.34 190.537 141.659 190.977 141.85C191.416 142.032 191.884 142.123 192.381 142.123C192.671 142.123 192.92 142.107 193.127 142.074C193.334 142.032 193.516 141.991 193.674 141.949L194.146 143.95C193.931 144.033 193.665 144.108 193.351 144.174C193.036 144.249 192.646 144.286 192.182 144.286C191.37 144.286 190.587 144.108 189.833 143.751C189.087 143.395 188.474 142.865 187.994 142.161C187.513 141.456 187.273 140.582 187.273 139.538V120.335ZM211.046 129.098L209.02 129.669C208.822 129.098 208.54 128.58 208.175 128.116C207.811 127.652 207.334 127.283 206.746 127.01C206.166 126.736 205.445 126.599 204.583 126.599C203.291 126.599 202.23 126.906 201.401 127.519C200.573 128.132 200.159 128.924 200.159 129.893C200.159 130.713 200.44 131.38 201.004 131.894C201.575 132.4 202.454 132.801 203.639 133.1L206.522 133.808C208.121 134.198 209.319 134.815 210.114 135.66C210.918 136.505 211.32 137.566 211.32 138.842C211.32 139.919 211.021 140.876 210.425 141.713C209.828 142.55 208.996 143.209 207.927 143.689C206.866 144.162 205.636 144.398 204.235 144.398C202.371 144.398 200.834 143.979 199.624 143.142C198.414 142.297 197.64 141.079 197.3 139.488L199.425 138.966C199.699 140.101 200.233 140.959 201.029 141.539C201.832 142.119 202.889 142.409 204.198 142.409C205.665 142.409 206.837 142.082 207.715 141.427C208.594 140.764 209.033 139.936 209.033 138.941C209.033 138.171 208.776 137.525 208.262 137.002C207.749 136.472 206.97 136.083 205.926 135.834L202.806 135.088C201.149 134.691 199.922 134.061 199.127 133.199C198.331 132.337 197.934 131.269 197.934 129.993C197.934 128.94 198.22 128.016 198.791 127.221C199.363 126.417 200.15 125.787 201.153 125.332C202.155 124.876 203.299 124.648 204.583 124.648C206.332 124.648 207.728 125.046 208.772 125.841C209.824 126.628 210.582 127.714 211.046 129.098Z" fill="#3B4021"/>
</svg>
