<svg width="176" height="176" viewBox="0 0 176 176" fill="none" xmlns="http://www.w3.org/2000/svg">
<path d="M88 0L93.5861 8.11507L100.247 0.856407L104.65 9.66994L112.256 3.40897L115.389 12.7494L123.793 7.608L125.595 17.2936L134.633 13.3718L135.07 23.2139L144.565 20.5881L143.628 30.3953L153.397 29.1165L151.104 38.6978L160.955 38.791L157.351 47.96L167.094 49.4233L162.249 58.0015L171.693 60.8065L165.701 68.6269L174.663 72.719L167.641 79.6294L175.946 84.9288L168.031 90.7948L175.518 97.1985L166.863 101.906L173.386 109.289L164.161 112.746L169.592 120.965L159.975 123.105L164.21 132L154.389 132.78L157.345 142.178L147.511 141.584L149.13 151.302L139.474 149.345L139.725 159.193L130.436 155.912L129.313 165.699L120.571 161.157L118.098 170.693L110.073 164.978L106.296 174.077L99.145 167.301L94.1386 175.786L88 168.08L81.8614 175.786L76.855 167.301L69.7038 174.077L65.927 164.978L57.9022 170.693L55.4285 161.157L46.6865 165.699L45.5641 155.912L36.2749 159.193L36.5256 149.345L26.8701 151.302L28.489 141.584L18.6551 142.178L21.6107 132.78L11.7898 132L16.0246 123.105L6.40782 120.965L11.8394 112.746L2.61398 109.289L9.1366 101.906L0.482071 97.1985L7.96878 90.7948L0.0536041 84.9288L8.35868 79.6294L1.33691 72.719L10.2987 68.6269L4.30703 60.8065L13.7511 58.0015L8.90612 49.4233L18.6487 47.96L15.0447 38.791L24.8961 38.6978L22.6033 29.1165L32.3718 30.3953L31.4347 20.5881L40.9302 23.2139L41.3671 13.3718L50.4047 17.2936L52.2072 7.608L60.611 12.7494L63.7439 3.40897L71.3504 9.66994L75.7528 0.856407L82.4139 8.11507L88 0Z" fill="#E6DDE4"/>
<path d="M43.9318 96V81.4545H52.348V82.6477H45.2599V88.1236H51.6875V89.3168H45.2599V96H43.9318ZM61.636 91.831V85.0909H62.9002V96H61.636V94.1889H61.5366C61.2809 94.7476 60.8761 95.214 60.3221 95.5881C59.7681 95.9574 59.091 96.142 58.2908 96.142C57.5948 96.142 56.9769 95.9905 56.4371 95.6875C55.8974 95.3797 55.4736 94.9299 55.1658 94.3381C54.8581 93.7462 54.7042 93.0194 54.7042 92.1577V85.0909H55.9684V92.0795C55.9684 92.9318 56.2193 93.6184 56.7212 94.1392C57.2231 94.6553 57.8671 94.9134 58.6531 94.9134C59.1455 94.9134 59.619 94.795 60.0735 94.5582C60.5281 94.3215 60.9021 93.9759 61.1957 93.5213C61.4892 93.062 61.636 92.4986 61.636 91.831ZM67.5114 89.1818V96H66.2472V85.0909H67.4759V86.8026H67.5895C67.8452 86.2438 68.2429 85.7964 68.7827 85.4602C69.3272 85.1193 69.9995 84.9489 70.7997 84.9489C71.5336 84.9489 72.1776 85.1027 72.7315 85.4105C73.2902 85.7135 73.7235 86.161 74.0312 86.7528C74.3438 87.3447 74.5 88.0715 74.5 88.9332V96H73.2358V89.0114C73.2358 88.1165 72.9848 87.4086 72.483 86.8878C71.9858 86.367 71.3182 86.1065 70.4801 86.1065C69.9072 86.1065 69.3982 86.2296 68.9531 86.4759C68.508 86.7221 68.1553 87.0772 67.8949 87.5412C67.6392 88.0005 67.5114 88.5473 67.5114 89.1818ZM83.717 96V81.4545H92.1332V82.6477H85.0451V88.1236H91.4727V89.3168H85.0451V96H83.717ZM98.2198 96.2486C97.5617 96.2486 96.9603 96.1207 96.4158 95.8651C95.8713 95.6046 95.4381 95.2306 95.1161 94.7429C94.7942 94.2505 94.6332 93.6539 94.6332 92.9531C94.6332 92.4134 94.735 91.9588 94.9386 91.5895C95.1422 91.2202 95.431 90.9171 95.805 90.6804C96.1791 90.4437 96.6218 90.2566 97.1332 90.1193C97.6445 89.982 98.208 89.8755 98.8235 89.7997C99.4343 89.724 99.9504 89.6577 100.372 89.6009C100.798 89.544 101.122 89.4541 101.345 89.331C101.567 89.2079 101.679 89.009 101.679 88.7344V88.4787C101.679 87.7353 101.456 87.1506 101.011 86.7244C100.571 86.2936 99.9362 86.0781 99.1076 86.0781C98.3216 86.0781 97.68 86.2509 97.1829 86.5966C96.6905 86.9422 96.3448 87.3494 96.146 87.8182L94.9457 87.3849C95.1919 86.7884 95.5328 86.3125 95.9684 85.9574C96.404 85.5975 96.8917 85.3395 97.4315 85.1832C97.9712 85.0223 98.5181 84.9418 99.0721 84.9418C99.4888 84.9418 99.922 84.9962 100.372 85.1051C100.826 85.214 101.248 85.4034 101.636 85.6733C102.024 85.9384 102.339 86.3101 102.581 86.7884C102.822 87.2618 102.943 87.8632 102.943 88.5923V96H101.679V94.2741H101.6C101.449 94.5961 101.224 94.9086 100.926 95.2116C100.627 95.5147 100.253 95.7633 99.8036 95.9574C99.3538 96.1515 98.8259 96.2486 98.2198 96.2486ZM98.3903 95.0909C99.0626 95.0909 99.645 94.9418 100.137 94.6435C100.63 94.3452 101.009 93.9498 101.274 93.4574C101.544 92.9602 101.679 92.4134 101.679 91.8168V90.2401C101.584 90.33 101.425 90.4105 101.203 90.4815C100.985 90.5526 100.732 90.6165 100.443 90.6733C100.159 90.7254 99.8746 90.7704 99.5906 90.8082C99.3065 90.8461 99.0508 90.8793 98.8235 90.9077C98.208 90.9834 97.6824 91.1018 97.2468 91.2628C96.8112 91.4238 96.4774 91.6463 96.2454 91.9304C96.0134 92.2098 95.8974 92.5696 95.8974 93.0099C95.8974 93.6728 96.1341 94.1866 96.6076 94.5511C97.0811 94.911 97.6753 95.0909 98.3903 95.0909ZM110.567 96.2273C109.592 96.2273 108.742 95.9834 108.017 95.4957C107.298 95.008 106.739 94.3404 106.341 93.4929C105.944 92.6454 105.745 91.6795 105.745 90.5952C105.745 89.5014 105.946 88.5284 106.348 87.6761C106.756 86.8239 107.319 86.1562 108.039 85.6733C108.758 85.1856 109.594 84.9418 110.546 84.9418C111.275 84.9418 111.935 85.0838 112.527 85.3679C113.119 85.6473 113.607 86.0426 113.99 86.554C114.379 87.0606 114.623 87.6525 114.722 88.3295H113.444C113.311 87.714 112.991 87.1884 112.485 86.7528C111.983 86.3125 111.344 86.0923 110.567 86.0923C109.871 86.0923 109.256 86.2817 108.721 86.6605C108.185 87.0346 107.766 87.5578 107.463 88.2301C107.165 88.8977 107.016 89.6719 107.016 90.5526C107.016 91.438 107.163 92.2216 107.456 92.9034C107.75 93.5805 108.162 94.1108 108.692 94.4943C109.227 94.8778 109.852 95.0696 110.567 95.0696C111.05 95.0696 111.49 94.9796 111.888 94.7997C112.291 94.6151 112.627 94.3546 112.897 94.0185C113.171 93.6823 113.356 93.2822 113.451 92.8182H114.729C114.634 93.4763 114.4 94.0634 114.026 94.5795C113.657 95.0909 113.176 95.4934 112.584 95.7869C111.997 96.0805 111.325 96.2273 110.567 96.2273ZM121.735 85.0909V86.1918H116.529V85.0909H121.735ZM118.156 82.4773H119.427V93.152C119.427 93.6065 119.505 93.964 119.662 94.2244C119.818 94.4801 120.021 94.6624 120.272 94.7713C120.523 94.8755 120.791 94.9276 121.075 94.9276C121.241 94.9276 121.383 94.9181 121.501 94.8991C121.619 94.8755 121.724 94.8518 121.814 94.8281L122.083 95.9716C121.96 96.0189 121.809 96.0616 121.629 96.0994C121.449 96.142 121.226 96.1634 120.961 96.1634C120.497 96.1634 120.05 96.0616 119.619 95.858C119.193 95.6544 118.842 95.3513 118.568 94.9489C118.293 94.5464 118.156 94.0469 118.156 93.4503V82.4773ZM131.741 87.4844L130.583 87.8111C130.469 87.4844 130.308 87.1884 130.1 86.9233C129.892 86.6581 129.62 86.4474 129.283 86.2912C128.952 86.1349 128.54 86.0568 128.048 86.0568C127.309 86.0568 126.703 86.232 126.229 86.5824C125.756 86.9328 125.519 87.3849 125.519 87.9389C125.519 88.4077 125.68 88.7888 126.002 89.0824C126.329 89.3712 126.831 89.6009 127.508 89.7713L129.156 90.1761C130.069 90.3987 130.754 90.7514 131.208 91.2344C131.667 91.7173 131.897 92.3234 131.897 93.0526C131.897 93.6681 131.727 94.215 131.386 94.6932C131.045 95.1714 130.569 95.5478 129.958 95.8224C129.352 96.0923 128.649 96.2273 127.849 96.2273C126.783 96.2273 125.905 95.9882 125.214 95.5099C124.522 95.027 124.08 94.331 123.886 93.4219L125.1 93.1236C125.256 93.7723 125.562 94.2623 126.016 94.5938C126.476 94.9252 127.079 95.0909 127.827 95.0909C128.665 95.0909 129.335 94.9039 129.837 94.5298C130.339 94.151 130.59 93.6776 130.59 93.1094C130.59 92.669 130.443 92.2997 130.15 92.0014C129.856 91.6984 129.411 91.4759 128.815 91.3338L127.032 90.9077C126.085 90.6804 125.384 90.3205 124.93 89.8281C124.475 89.3357 124.248 88.7249 124.248 87.9957C124.248 87.3944 124.411 86.8665 124.738 86.4119C125.065 85.9527 125.514 85.5928 126.087 85.3324C126.66 85.072 127.314 84.9418 128.048 84.9418C129.047 84.9418 129.844 85.169 130.441 85.6236C131.042 86.0734 131.476 86.6937 131.741 87.4844Z" fill="#3B4021"/>
</svg>
