<svg width="63" height="51" viewBox="0 0 63 51" fill="none" xmlns="http://www.w3.org/2000/svg">
    <path d="M10.3936 48.5684C9.22168 47.7871 8.57064 46.599 8.44043 45.0039C8.31022 43.4089 8.50553 41.6348 9.02637 39.6816C9.57975 37.7285 10.3447 35.694 11.3213 33.5781C12.3304 31.4297 13.3721 29.4277 14.4463 27.5723C15.5531 25.7168 16.5947 24.0892 17.5713 22.6895C18.5479 21.2572 19.2803 20.2806 19.7686 19.7598C19.8011 19.6296 19.8174 19.3529 19.8174 18.9297C19.8174 18.474 19.8011 18.181 19.7686 18.0508C19.7035 17.6602 19.5895 16.9928 19.4268 16.0488C19.2965 15.0723 19.1338 14.0469 18.9385 12.9727C18.7757 11.8659 18.5967 10.8405 18.4014 9.89648C18.2386 8.91992 18.1247 8.23633 18.0596 7.8457C17.8968 7.55273 17.6527 7.30859 17.3271 7.11328C17.0342 6.91797 16.7087 6.90169 16.3506 7.06445L2.8252 12.0938C2.43457 12.2565 2.09277 12.2402 1.7998 12.0449C1.50684 11.8496 1.29525 11.5892 1.16504 11.2637C1.03483 10.9382 1.01855 10.6126 1.11621 10.2871C1.24642 9.96159 1.52311 9.71745 1.94629 9.55469L29.9248 0.228516H32.4639C32.6917 0.912109 32.7568 1.41667 32.6592 1.74219C32.5615 2.03516 32.3662 2.24674 32.0732 2.37695C31.8128 2.50716 31.4873 2.58854 31.0967 2.62109C30.7061 2.65365 30.3154 2.71875 29.9248 2.81641C29.5993 2.91406 29.0296 3.07682 28.2158 3.30469C27.4346 3.53255 26.5882 3.79297 25.6768 4.08594C24.7653 4.34635 23.9027 4.60677 23.0889 4.86719C22.3076 5.09505 21.7705 5.25781 21.4775 5.35547C21.2822 7.21094 21.3311 9.08268 21.624 10.9707C21.917 12.8262 22.4378 14.6165 23.1865 16.3418L31.6338 12.0938C32.0895 11.8659 32.529 11.8333 32.9521 11.9961C33.4079 12.1589 33.7334 12.403 33.9287 12.7285C34.1566 13.054 34.238 13.4121 34.1729 13.8027C34.1077 14.1608 33.8148 14.4375 33.2939 14.6328C32.5452 14.9258 31.6501 15.235 30.6084 15.5605C29.5993 15.8535 28.5902 16.2116 27.5811 16.6348C26.5719 17.0579 25.6605 17.5788 24.8467 18.1973C24.0329 18.8158 23.4795 19.6133 23.1865 20.5898C23.0563 20.9154 22.9424 21.6803 22.8447 22.8848C22.7471 24.0566 22.6169 25.4889 22.4541 27.1816C22.3239 28.8743 22.1286 30.7135 21.8682 32.6992C21.6403 34.6849 21.3311 36.638 20.9404 38.5586C20.5498 40.4466 20.0615 42.2207 19.4756 43.8809C18.8896 45.541 18.1735 46.8757 17.3271 47.8848C16.4808 48.9264 15.488 49.5449 14.3486 49.7402C13.2093 49.9355 11.891 49.5449 10.3936 48.5684ZM12.1025 45.9805C12.5583 46.8919 13.0628 47.2012 13.6162 46.9082C14.1696 46.6478 14.723 46.0293 15.2764 45.0527C15.8623 44.1087 16.4157 42.9206 16.9365 41.4883C17.4574 40.0885 17.9131 38.7051 18.3037 37.3379C18.7269 35.9707 19.0687 34.75 19.3291 33.6758C19.5895 32.6016 19.736 31.9017 19.7686 31.5762C19.8011 31.2832 19.8174 30.7461 19.8174 29.9648V24.8379C19.8174 24.0241 19.8011 23.4544 19.7686 23.1289C18.4014 24.5612 17.1807 26.2051 16.1064 28.0605C15.0648 29.8835 14.2021 31.804 13.5186 33.8223C12.835 35.8079 12.363 37.8424 12.1025 39.9258C11.8421 42.0091 11.8421 44.0273 12.1025 45.9805ZM38.7627 40.1699C37.4281 39.6491 36.3376 38.7214 35.4912 37.3867C34.6774 36.0195 34.0915 34.4408 33.7334 32.6504C33.3753 30.8275 33.2451 28.8581 33.3428 26.7422C33.4404 24.6263 33.7171 22.5104 34.1729 20.3945C34.6611 18.2786 35.3122 16.2604 36.126 14.3398C36.9398 12.4193 37.9001 10.7591 39.0068 9.35938C40.1136 7.92708 41.3506 6.85286 42.7178 6.13672C44.1175 5.38802 45.6149 5.14388 47.21 5.4043C47.2751 5.72982 47.389 6.29948 47.5518 7.11328C47.7471 7.89453 47.9261 8.74089 48.0889 9.65234C48.2842 10.5638 48.4469 11.4264 48.5771 12.2402C48.7399 13.0215 48.8538 13.5749 48.9189 13.9004C48.984 14.2585 48.8701 14.6491 48.5771 15.0723C48.2842 15.4954 47.9261 15.8372 47.5029 16.0977C47.1123 16.3581 46.7217 16.4883 46.3311 16.4883C45.9404 16.4557 45.68 16.1628 45.5498 15.6094C45.4521 15.2839 45.3708 14.8118 45.3057 14.1934C45.2406 13.5749 45.1592 12.9238 45.0615 12.2402C44.9639 11.5566 44.8337 10.9219 44.6709 10.3359C44.5081 9.71745 44.2803 9.27799 43.9873 9.01758C43.6943 8.75716 43.32 8.72461 42.8643 8.91992C42.4411 9.08268 41.9202 9.60352 41.3018 10.4824C41.1064 10.7428 40.8623 11.1009 40.5693 11.5566C40.3089 11.9798 40.0322 12.4193 39.7393 12.875C39.4788 13.3307 39.251 13.7376 39.0557 14.0957C38.8604 14.4538 38.7627 14.6654 38.7627 14.7305L36.2236 28.3047C35.9307 29.8021 35.9469 31.153 36.2725 32.3574C36.598 33.5293 37.1188 34.5384 37.835 35.3848C38.5511 36.1986 39.43 36.8496 40.4717 37.3379C41.5133 37.7936 42.6038 38.054 43.7432 38.1191C44.915 38.1517 46.0869 38.0052 47.2588 37.6797C48.4632 37.3216 49.5863 36.7357 50.6279 35.9219C51.0186 35.6289 51.5231 35.0755 52.1416 34.2617C52.7926 33.4479 53.4762 32.5365 54.1924 31.5273C54.9085 30.4857 55.6572 29.4115 56.4385 28.3047C57.2197 27.1654 57.9521 26.1562 58.6357 25.2773C59.3193 24.3659 59.9215 23.6335 60.4424 23.0801C60.9632 22.5267 61.3538 22.2826 61.6143 22.3477C62.1025 23.7799 62.07 25.2936 61.5166 26.8887C60.9958 28.4837 60.1169 30.0462 58.8799 31.5762C57.6755 33.0736 56.2106 34.4733 54.4854 35.7754C52.7926 37.0775 51.0186 38.1517 49.1631 38.998C47.3076 39.8444 45.4684 40.3978 43.6455 40.6582C41.8226 40.9186 40.195 40.7559 38.7627 40.1699Z" fill="#3B4021"/>
</svg> 