<svg width="38" height="31" viewBox="0 0 38 31" fill="none" xmlns="http://www.w3.org/2000/svg">
<path d="M6.03613 29.541C5.33301 29.0723 4.94238 28.3594 4.86426 27.4023C4.78613 26.4453 4.90332 25.3809 5.21582 24.209C5.54785 23.0371 6.00684 21.8164 6.59277 20.5469C7.19824 19.2578 7.82324 18.0566 8.46777 16.9434C9.13184 15.8301 9.75684 14.8535 10.3428 14.0137C10.9287 13.1543 11.3682 12.5684 11.6611 12.2559C11.6807 12.1777 11.6904 12.0117 11.6904 11.7578C11.6904 11.4844 11.6807 11.3086 11.6611 11.2305C11.6221 10.9961 11.5537 10.5957 11.4561 10.0293C11.3779 9.44336 11.2803 8.82812 11.1631 8.18359C11.0654 7.51953 10.958 6.9043 10.8408 6.33789C10.7432 5.75195 10.6748 5.3418 10.6357 5.10742C10.5381 4.93164 10.3916 4.78516 10.1963 4.66797C10.0205 4.55078 9.8252 4.54102 9.61035 4.63867L1.49512 7.65625C1.26074 7.75391 1.05566 7.74414 0.879883 7.62695C0.704102 7.50977 0.577148 7.35352 0.499023 7.1582C0.420898 6.96289 0.411133 6.76758 0.469727 6.57227C0.547852 6.37695 0.713867 6.23047 0.967773 6.13281L17.7549 0.537109H19.2783C19.415 0.947266 19.4541 1.25 19.3955 1.44531C19.3369 1.62109 19.2197 1.74805 19.0439 1.82617C18.8877 1.9043 18.6924 1.95312 18.458 1.97266C18.2236 1.99219 17.9893 2.03125 17.7549 2.08984C17.5596 2.14844 17.2178 2.24609 16.7295 2.38281C16.2607 2.51953 15.7529 2.67578 15.2061 2.85156C14.6592 3.00781 14.1416 3.16406 13.6533 3.32031C13.1846 3.45703 12.8623 3.55469 12.6865 3.61328C12.5693 4.72656 12.5986 5.84961 12.7744 6.98242C12.9502 8.0957 13.2627 9.16992 13.7119 10.2051L18.7803 7.65625C19.0537 7.51953 19.3174 7.5 19.5713 7.59766C19.8447 7.69531 20.04 7.8418 20.1572 8.03711C20.2939 8.23242 20.3428 8.44727 20.3037 8.68164C20.2646 8.89648 20.0889 9.0625 19.7764 9.17969C19.3271 9.35547 18.79 9.54102 18.165 9.73633C17.5596 9.91211 16.9541 10.127 16.3486 10.3809C15.7432 10.6348 15.1963 10.9473 14.708 11.3184C14.2197 11.6895 13.8877 12.168 13.7119 12.7539C13.6338 12.9492 13.5654 13.4082 13.5068 14.1309C13.4482 14.834 13.3701 15.6934 13.2725 16.709C13.1943 17.7246 13.0771 18.8281 12.9209 20.0195C12.7842 21.2109 12.5986 22.3828 12.3643 23.5352C12.1299 24.668 11.8369 25.7324 11.4854 26.7285C11.1338 27.7246 10.7041 28.5254 10.1963 29.1309C9.68848 29.7559 9.09277 30.127 8.40918 30.2441C7.72559 30.3613 6.93457 30.127 6.03613 29.541ZM7.06152 27.9883C7.33496 28.5352 7.6377 28.7207 7.96973 28.5449C8.30176 28.3887 8.63379 28.0176 8.96582 27.4316C9.31738 26.8652 9.64941 26.1523 9.96191 25.293C10.2744 24.4531 10.5479 23.623 10.7822 22.8027C11.0361 21.9824 11.2412 21.25 11.3975 20.6055C11.5537 19.9609 11.6416 19.541 11.6611 19.3457C11.6807 19.1699 11.6904 18.8477 11.6904 18.3789V15.3027C11.6904 14.8145 11.6807 14.4727 11.6611 14.2773C10.8408 15.1367 10.1084 16.123 9.46387 17.2363C8.83887 18.3301 8.32129 19.4824 7.91113 20.6934C7.50098 21.8848 7.21777 23.1055 7.06152 24.3555C6.90527 25.6055 6.90527 26.8164 7.06152 27.9883ZM23.0576 24.502C22.2568 24.1895 21.6025 23.6328 21.0947 22.832C20.6064 22.0117 20.2549 21.0645 20.04 19.9902C19.8252 18.8965 19.7471 17.7148 19.8057 16.4453C19.8643 15.1758 20.0303 13.9062 20.3037 12.6367C20.5967 11.3672 20.9873 10.1562 21.4756 9.00391C21.9639 7.85156 22.54 6.85547 23.2041 6.01562C23.8682 5.15625 24.6104 4.51172 25.4307 4.08203C26.2705 3.63281 27.1689 3.48633 28.126 3.64258C28.165 3.83789 28.2334 4.17969 28.3311 4.66797C28.4482 5.13672 28.5557 5.64453 28.6533 6.19141C28.7705 6.73828 28.8682 7.25586 28.9463 7.74414C29.0439 8.21289 29.1123 8.54492 29.1514 8.74023C29.1904 8.95508 29.1221 9.18945 28.9463 9.44336C28.7705 9.69727 28.5557 9.90234 28.3018 10.0586C28.0674 10.2148 27.833 10.293 27.5986 10.293C27.3643 10.2734 27.208 10.0977 27.1299 9.76562C27.0713 9.57031 27.0225 9.28711 26.9834 8.91602C26.9443 8.54492 26.8955 8.1543 26.8369 7.74414C26.7783 7.33398 26.7002 6.95312 26.6025 6.60156C26.5049 6.23047 26.3682 5.9668 26.1924 5.81055C26.0166 5.6543 25.792 5.63477 25.5186 5.75195C25.2646 5.84961 24.9521 6.16211 24.5811 6.68945C24.4639 6.8457 24.3174 7.06055 24.1416 7.33398C23.9854 7.58789 23.8193 7.85156 23.6436 8.125C23.4873 8.39844 23.3506 8.64258 23.2334 8.85742C23.1162 9.07227 23.0576 9.19922 23.0576 9.23828L21.5342 17.3828C21.3584 18.2812 21.3682 19.0918 21.5635 19.8145C21.7588 20.5176 22.0713 21.123 22.501 21.6309C22.9307 22.1191 23.458 22.5098 24.083 22.8027C24.708 23.0762 25.3623 23.2324 26.0459 23.2715C26.749 23.291 27.4521 23.2031 28.1553 23.0078C28.8779 22.793 29.5518 22.4414 30.1768 21.9531C30.4111 21.7773 30.7139 21.4453 31.085 20.957C31.4756 20.4688 31.8857 19.9219 32.3154 19.3164C32.7451 18.6914 33.1943 18.0469 33.6631 17.3828C34.1318 16.6992 34.5713 16.0938 34.9814 15.5664C35.3916 15.0195 35.7529 14.5801 36.0654 14.248C36.3779 13.916 36.6123 13.7695 36.7686 13.8086C37.0615 14.668 37.042 15.5762 36.71 16.5332C36.3975 17.4902 35.8701 18.4277 35.1279 19.3457C34.4053 20.2441 33.5264 21.084 32.4912 21.8652C31.4756 22.6465 30.4111 23.291 29.2979 23.7988C28.1846 24.3066 27.0811 24.6387 25.9873 24.7949C24.8936 24.9512 23.917 24.8535 23.0576 24.502Z" fill="#3B4021"/>
</svg>
