<svg width="50" height="41" viewBox="0 0 50 41" fill="none" xmlns="http://www.w3.org/2000/svg">
<path d="M7.71484 39.0547C6.77734 38.4297 6.25651 37.4792 6.15234 36.2031C6.04818 34.9271 6.20443 33.5078 6.62109 31.9453C7.0638 30.3828 7.67578 28.7552 8.45703 27.0625C9.26432 25.3438 10.0977 23.7422 10.957 22.2578C11.8424 20.7734 12.6758 19.4714 13.457 18.3516C14.2383 17.2057 14.8242 16.4245 15.2148 16.0078C15.2409 15.9036 15.2539 15.6823 15.2539 15.3438C15.2539 14.9792 15.2409 14.7448 15.2148 14.6406C15.1628 14.3281 15.0716 13.7943 14.9414 13.0391C14.8372 12.2578 14.707 11.4375 14.5508 10.5781C14.4206 9.69271 14.2773 8.8724 14.1211 8.11719C13.9909 7.33594 13.8997 6.78906 13.8477 6.47656C13.7174 6.24219 13.5221 6.04688 13.2617 5.89062C13.0273 5.73438 12.7669 5.72135 12.4805 5.85156L1.66016 9.875C1.34766 10.0052 1.07422 9.99219 0.839844 9.83594C0.605469 9.67969 0.436198 9.47135 0.332031 9.21094C0.227865 8.95052 0.214844 8.6901 0.292969 8.42969C0.397135 8.16927 0.61849 7.97396 0.957031 7.84375L23.3398 0.382812H25.3711C25.5534 0.929688 25.6055 1.33333 25.5273 1.59375C25.4492 1.82812 25.293 1.9974 25.0586 2.10156C24.8503 2.20573 24.5898 2.27083 24.2773 2.29688C23.9648 2.32292 23.6523 2.375 23.3398 2.45312C23.0794 2.53125 22.6237 2.66146 21.9727 2.84375C21.3477 3.02604 20.6706 3.23438 19.9414 3.46875C19.2122 3.67708 18.5221 3.88542 17.8711 4.09375C17.2461 4.27604 16.8164 4.40625 16.582 4.48438C16.4258 5.96875 16.4648 7.46615 16.6992 8.97656C16.9336 10.4609 17.3503 11.8932 17.9492 13.2734L24.707 9.875C25.0716 9.69271 25.4232 9.66667 25.7617 9.79688C26.1263 9.92708 26.3867 10.1224 26.543 10.3828C26.7253 10.6432 26.7904 10.9297 26.7383 11.2422C26.6862 11.5286 26.4518 11.75 26.0352 11.9062C25.4362 12.1406 24.7201 12.388 23.8867 12.6484C23.0794 12.8828 22.2721 13.1693 21.4648 13.5078C20.6576 13.8464 19.9284 14.263 19.2773 14.7578C18.6263 15.2526 18.1836 15.8906 17.9492 16.6719C17.8451 16.9323 17.7539 17.5443 17.6758 18.5078C17.5977 19.4453 17.4935 20.5911 17.3633 21.9453C17.2591 23.2995 17.1029 24.7708 16.8945 26.3594C16.7122 27.9479 16.4648 29.5104 16.1523 31.0469C15.8398 32.5573 15.4492 33.9766 14.9805 35.3047C14.5117 36.6328 13.9388 37.7005 13.2617 38.5078C12.5846 39.3411 11.7904 39.8359 10.8789 39.9922C9.96745 40.1484 8.91276 39.8359 7.71484 39.0547ZM9.08203 36.9844C9.44661 37.7135 9.85026 37.9609 10.293 37.7266C10.7357 37.5182 11.1784 37.0234 11.6211 36.2422C12.0898 35.487 12.5326 34.5365 12.9492 33.3906C13.3659 32.2708 13.7305 31.1641 14.043 30.0703C14.3815 28.9766 14.6549 28 14.8633 27.1406C15.0716 26.2812 15.1888 25.7214 15.2148 25.4609C15.2409 25.2266 15.2539 24.7969 15.2539 24.1719V20.0703C15.2539 19.4193 15.2409 18.9635 15.2148 18.7031C14.1211 19.849 13.1445 21.1641 12.2852 22.6484C11.4518 24.1068 10.7617 25.6432 10.2148 27.2578C9.66797 28.8464 9.29036 30.474 9.08203 32.1406C8.8737 33.8073 8.8737 35.4219 9.08203 36.9844ZM30.4102 32.3359C29.3424 31.9193 28.4701 31.1771 27.793 30.1094C27.1419 29.0156 26.6732 27.7526 26.3867 26.3203C26.1003 24.862 25.9961 23.2865 26.0742 21.5938C26.1523 19.901 26.3737 18.2083 26.7383 16.5156C27.1289 14.8229 27.6497 13.2083 28.3008 11.6719C28.9518 10.1354 29.7201 8.80729 30.6055 7.6875C31.4909 6.54167 32.4805 5.68229 33.5742 5.10938C34.694 4.51042 35.8919 4.3151 37.168 4.52344C37.2201 4.78385 37.3112 5.23958 37.4414 5.89062C37.5977 6.51562 37.7409 7.19271 37.8711 7.92188C38.0273 8.65104 38.1576 9.34115 38.2617 9.99219C38.3919 10.6172 38.4831 11.0599 38.5352 11.3203C38.5872 11.6068 38.4961 11.9193 38.2617 12.2578C38.0273 12.5964 37.7409 12.8698 37.4023 13.0781C37.0898 13.2865 36.7773 13.3906 36.4648 13.3906C36.1523 13.3646 35.944 13.1302 35.8398 12.6875C35.7617 12.4271 35.6966 12.0495 35.6445 11.5547C35.5924 11.0599 35.5273 10.5391 35.4492 9.99219C35.3711 9.44531 35.2669 8.9375 35.1367 8.46875C35.0065 7.97396 34.8242 7.6224 34.5898 7.41406C34.3555 7.20573 34.056 7.17969 33.6914 7.33594C33.3529 7.46615 32.9362 7.88281 32.4414 8.58594C32.2852 8.79427 32.0898 9.08073 31.8555 9.44531C31.6471 9.78385 31.4258 10.1354 31.1914 10.5C30.9831 10.8646 30.8008 11.1901 30.6445 11.4766C30.4883 11.763 30.4102 11.9323 30.4102 11.9844L28.3789 22.8438C28.1445 24.0417 28.1576 25.1224 28.418 26.0859C28.6784 27.0234 29.0951 27.8307 29.668 28.5078C30.2409 29.1589 30.944 29.6797 31.7773 30.0703C32.6107 30.4349 33.4831 30.6432 34.3945 30.6953C35.332 30.7214 36.2695 30.6042 37.207 30.3438C38.1706 30.0573 39.069 29.5885 39.9023 28.9375C40.2148 28.7031 40.6185 28.2604 41.1133 27.6094C41.6341 26.9583 42.181 26.2292 42.7539 25.4219C43.3268 24.5885 43.9258 23.7292 44.5508 22.8438C45.1758 21.9323 45.7617 21.125 46.3086 20.4219C46.8555 19.6927 47.3372 19.1068 47.7539 18.6641C48.1706 18.2214 48.4831 18.026 48.6914 18.0781C49.082 19.224 49.056 20.4349 48.6133 21.7109C48.1966 22.987 47.4935 24.237 46.5039 25.4609C45.5404 26.6589 44.3685 27.7786 42.9883 28.8203C41.6341 29.862 40.2148 30.7214 38.7305 31.3984C37.2461 32.0755 35.7747 32.5182 34.3164 32.7266C32.8581 32.9349 31.556 32.8047 30.4102 32.3359Z" fill="#3B4021"/>
</svg>
