<svg width="253" height="276" viewBox="0 0 253 276" fill="none" xmlns="http://www.w3.org/2000/svg">
<circle cx="114" cy="266" r="4" fill="#E6DDE4"/>
<path d="M91.6403 270.567L90.1448 270.225L87.8253 256.697L87.7007 256.668L79.7318 267.843L78.2363 267.501L81.479 253.322L82.6975 253.601L80.0803 265.045L80.1911 265.071L87.5925 254.72L88.7695 254.989L90.9364 267.528L91.0472 267.553L93.6644 256.109L94.883 256.387L91.6403 270.567Z" fill="#3B4021"/>
<path d="M74.0205 246.385C74.2531 246.479 74.4614 246.589 74.6454 246.715C74.8294 246.84 74.97 246.954 75.0671 247.054L74.3322 247.96C73.9827 247.675 73.6451 247.487 73.3193 247.396C72.9953 247.3 72.662 247.328 72.3192 247.48C71.9783 247.628 71.6102 247.919 71.2151 248.351L70.4302 249.228L70.0091 260.944L68.7389 260.429L69.2101 250.649L69.1179 250.612L62.6442 257.958L61.374 257.443L70.4003 247.469C70.7777 247.055 71.1639 246.739 71.5588 246.521C71.9556 246.298 72.3593 246.179 72.77 246.161C73.178 246.138 73.5949 246.212 74.0205 246.385Z" fill="#3B4021"/>
<path d="M47.3387 237.185L41.8434 251.23L40.7613 250.423L45.5912 238.425L45.5 238.357L35.385 246.418L34.1548 245.501L38.9846 233.503L38.8935 233.435L28.7784 241.495L27.6906 240.685L39.5759 231.401L40.715 232.25L36.0497 244.158L36.1237 244.214L46.1996 236.336L47.3387 237.185Z" fill="#3B4021"/>
<path d="M28.4713 220.755C29.1217 221.437 29.5238 222.205 29.6778 223.059C29.8285 223.91 29.7395 224.774 29.4107 225.65C29.0785 226.53 28.5115 227.352 27.7098 228.117C26.9013 228.888 26.0498 229.419 25.1555 229.709C24.2577 230.003 23.3892 230.053 22.5498 229.859C21.7037 229.665 20.9555 229.227 20.3052 228.545C19.6548 227.863 19.2543 227.097 19.1036 226.246C18.9529 225.395 19.0436 224.53 19.3758 223.65C19.7048 222.767 20.2735 221.94 21.0821 221.169C21.8838 220.404 22.7318 219.876 23.6262 219.586C24.5171 219.299 25.3855 219.252 26.2316 219.447C27.0744 219.637 27.821 220.074 28.4713 220.755ZM27.6336 221.554C27.1107 221.006 26.5206 220.682 25.8632 220.583C25.2058 220.484 24.539 220.57 23.8627 220.842C23.1833 221.111 22.5489 221.526 21.9596 222.089C21.3703 222.651 20.9237 223.266 20.6199 223.936C20.3129 224.602 20.1917 225.267 20.2563 225.932C20.321 226.596 20.6148 227.203 21.1377 227.751C21.6573 228.295 22.2492 228.618 22.9133 228.717C23.5741 228.813 24.246 228.725 24.9289 228.453C25.6086 228.178 26.243 227.759 26.8323 227.197C27.4216 226.635 27.8681 226.022 28.1717 225.36C28.4721 224.694 28.5883 224.03 28.5202 223.369C28.452 222.707 28.1565 222.103 27.6336 221.554Z" fill="#3B4021"/>
<path d="M20.1498 211.461L11.3891 217.962L10.657 216.975L12.003 215.976L11.948 215.902C11.3771 216.055 10.7959 216.014 10.2043 215.781C9.60601 215.547 9.10234 215.154 8.69322 214.603C8.63115 214.519 8.56392 214.425 8.49155 214.319C8.41917 214.214 8.35949 214.125 8.31251 214.054L9.34485 213.288C9.3711 213.339 9.41895 213.428 9.48838 213.553C9.55782 213.678 9.64191 213.807 9.74066 213.941C10.0792 214.397 10.4781 214.732 10.9372 214.945C11.3898 215.158 11.8614 215.241 12.3522 215.195C12.8429 215.15 13.3051 214.966 13.7385 214.644L19.3965 210.446L20.1498 211.461Z" fill="#3B4021"/>
<path d="M8.73098 202.048L7.30118 202.881L7.16024 202.635L0.164922 200.742L-0.627818 199.355L6.26796 201.231L6.34283 201.319L8.73098 202.048ZM12.8785 201.004L0.248975 208.219L-0.37817 207.122L12.2513 199.906L12.8785 201.004ZM9.50668 195.102L6.83965 201.73L5.63016 201.374L8.70337 193.696L9.50668 195.102Z" fill="#3B4021"/>
<path d="M0.0101764 104.758L-15.043 103.838L-14.6078 102.56L-1.70622 103.475L-1.66957 103.367L-12.4455 96.2142L-11.9507 94.7621L0.950908 95.6766L0.987558 95.569L-9.78834 88.4158L-9.35083 87.1318L3.1323 95.5945L2.67418 96.939L-10.0913 96.1535L-10.1211 96.2409L0.468302 103.413L0.0101764 104.758Z" fill="#3B4021"/>
<path d="M9.85637 81.7586C9.40707 82.5868 8.79953 83.2053 8.03374 83.614C7.2702 84.0186 6.42094 84.1989 5.48596 84.1549C4.54682 84.1087 3.5903 83.8214 2.61643 83.2931C1.63423 82.7603 0.867722 82.1128 0.316917 81.3507C-0.23805 80.5864 -0.552035 79.7751 -0.625039 78.9167C-0.699945 78.0519 -0.512749 77.2054 -0.0634484 76.3772C0.385852 75.5489 0.992268 74.9326 1.7558 74.528C2.51933 74.1234 3.37067 73.9442 4.30982 73.9905C5.25122 74.0325 6.21302 74.32 7.19522 74.8528C8.1691 75.3811 8.93144 76.0263 9.48225 76.7884C10.0289 77.5482 10.3397 78.3605 10.4146 79.2253C10.4917 80.086 10.3057 80.9304 9.85637 81.7586ZM8.83879 81.2066C9.20004 80.5407 9.32701 79.8797 9.2197 79.2235C9.1124 78.5674 8.82552 77.9593 8.35907 77.3992C7.89487 76.8349 7.30485 76.3586 6.58901 75.9703C5.87317 75.5819 5.15011 75.3459 4.41985 75.2622C3.69185 75.1743 3.0215 75.2631 2.4088 75.5286C1.7961 75.7942 1.30913 76.2599 0.947886 76.9258C0.588898 77.5875 0.464008 78.2497 0.573219 78.9122C0.684687 79.5706 0.9746 80.1831 1.44296 80.7496C1.91357 81.3119 2.5068 81.7873 3.22264 82.1756C3.93849 82.564 4.65833 82.801 5.38217 82.8866C6.10827 82.9681 6.77559 82.8749 7.38412 82.6071C7.99266 82.3393 8.47755 81.8725 8.83879 81.2066Z" fill="#3B4021"/>
<path d="M16.1479 70.986L7.2723 64.6432L7.98669 63.6435L9.35039 64.6181L9.40408 64.543C9.08385 64.0464 8.9439 63.4808 8.98422 62.8462C9.02345 62.205 9.24265 61.6051 9.64183 61.0465C9.7024 60.9618 9.77177 60.8688 9.84996 60.7675C9.92814 60.6662 9.99393 60.5823 10.0473 60.5157L11.0932 61.2632C11.0525 61.3039 10.9831 61.3765 10.8851 61.4811C10.7871 61.5856 10.6899 61.7053 10.5936 61.8402C10.2632 62.3024 10.0669 62.7848 10.0046 63.2873C9.94118 63.7833 10.0066 64.2577 10.2008 64.7108C10.395 65.1638 10.7116 65.5472 11.1508 65.8611L16.883 69.9575L16.1479 70.986Z" fill="#3B4021"/>
<path d="M21.6023 57.2292L20.3705 56.1241L20.562 55.9143L20.2165 48.6756L21.2937 47.4953L21.6246 54.6341L21.5637 54.7324L21.6023 57.2292ZM23.8693 60.8559L13.1258 51.0504L13.978 50.1167L24.7215 59.9222L23.8693 60.8559ZM28.4512 55.8357L21.3246 55.3315L21.2923 54.0711L29.5429 54.6396L28.4512 55.8357Z" fill="#3B4021"/>
<path d="M56.0643 17.8579L57.4778 17.2618L67.2632 26.8864L67.381 26.8367L67.3204 13.1114L68.734 12.5154L74.3855 25.918L73.2337 26.4037L68.6722 15.586L68.5675 15.6302L68.6069 28.3547L67.4944 28.8238L58.4108 19.913L58.3061 19.9572L62.8676 30.7748L61.7158 31.2605L56.0643 17.8579Z" fill="#3B4021"/>
<path d="M84.4915 27.191C84.2476 27.2503 84.0143 27.2827 83.7915 27.2882C83.5687 27.2936 83.3884 27.2839 83.2508 27.2589L83.3185 26.0949C83.7685 26.1218 84.1523 26.0772 84.47 25.9609C84.7888 25.8493 85.0429 25.6316 85.2321 25.3078C85.4225 24.9886 85.5517 24.5381 85.6197 23.9563L85.7443 22.7857L79.2417 13.0306L80.5736 12.7066L85.9043 20.9194L86.0009 20.8959L86.9639 11.1522L88.2958 10.8283L86.7964 24.1963C86.732 24.7529 86.6032 25.235 86.41 25.6426C86.2179 26.0548 85.9602 26.3879 85.637 26.6419C85.3196 26.8994 84.9377 27.0825 84.4915 27.191Z" fill="#3B4021"/>
<path d="M111.522 19.0708L107.777 4.46177L109.126 4.48398L112.216 17.0436L112.329 17.0455L115.83 4.5943L117.364 4.61954L120.453 17.1792L120.567 17.181L124.067 4.72987L125.424 4.75219L121.201 19.2301L119.78 19.2067L116.61 6.81625L116.518 6.81473L112.942 19.0942L111.522 19.0708Z" fill="#3B4021"/>
<path d="M136.432 21.3834C135.506 21.21 134.731 20.8215 134.107 20.2182C133.488 19.6156 133.056 18.8627 132.81 17.9593C132.566 17.0513 132.546 16.0528 132.75 14.9638C132.956 13.8655 133.337 12.9372 133.893 12.1791C134.45 11.4164 135.126 10.8685 135.92 10.5356C136.721 10.1989 137.584 10.1173 138.51 10.2907C139.436 10.4642 140.209 10.8521 140.828 11.4547C141.447 12.0572 141.879 12.8125 142.123 13.7205C142.372 14.6293 142.394 15.633 142.188 16.7313C141.984 17.8203 141.604 18.7439 141.048 19.502C140.493 20.2554 139.815 20.8005 139.015 21.1372C138.219 21.4748 137.359 21.5568 136.432 21.3834ZM136.646 20.2455C137.39 20.385 138.058 20.3029 138.65 19.9994C139.241 19.6959 139.732 19.2363 140.122 18.6204C140.517 18.0055 140.789 17.2978 140.939 16.4973C141.089 15.6968 141.091 14.9362 140.947 14.2155C140.807 13.4956 140.517 12.8849 140.076 12.3833C139.635 11.8816 139.043 11.5611 138.298 11.4216C137.558 11.2831 136.89 11.3674 136.292 11.6747C135.7 11.9828 135.206 12.4467 134.811 13.0663C134.42 13.6868 134.15 14.3973 134 15.1978C133.85 15.9983 133.845 16.7561 133.986 17.4713C134.131 18.1874 134.425 18.7939 134.866 19.2909C135.308 19.7878 135.901 20.1061 136.646 20.2455Z" fill="#3B4021"/>
<path d="M148.616 24.0657L151.929 13.6717L153.099 14.0448L152.59 15.6418L152.678 15.6699C153.053 15.2127 153.548 14.9059 154.164 14.7495C154.787 14.5901 155.425 14.6146 156.079 14.8231C156.178 14.8547 156.288 14.8922 156.408 14.9355C156.529 14.9789 156.629 15.0157 156.709 15.0461L156.318 16.2709C156.267 16.2446 156.176 16.2009 156.047 16.1397C155.917 16.0786 155.774 16.0228 155.616 15.9725C155.074 15.7999 154.555 15.7611 154.058 15.856C153.566 15.9479 153.135 16.1557 152.763 16.4796C152.391 16.8035 152.124 17.2225 151.96 17.7368L149.82 24.4496L148.616 24.0657Z" fill="#3B4021"/>
<path d="M163.382 25.0344L164.056 23.5229L164.315 23.6408L171.098 21.0904L172.552 21.7534L165.859 24.2592L165.747 24.2315L163.382 25.0344ZM160.626 28.3051L166.662 15.0707L167.812 15.5953L161.777 28.8296L160.626 28.3051ZM166.811 31.1252L165.103 24.1878L166.293 23.7701L168.284 31.797L166.811 31.1252Z" fill="#3B4021"/>
<path d="M211.431 45.7501L212.432 46.9125L206.275 59.1795L206.358 59.2764L219.403 55.0063L220.404 56.1688L209.382 65.6608L208.567 64.7137L217.462 57.0524L217.388 56.9663L205.29 60.909L204.502 59.9941L210.195 48.6141L210.121 48.528L201.225 56.1894L200.409 55.2422L211.431 45.7501Z" fill="#3B4021"/>
<path d="M211.272 75.67C211.141 75.4561 211.038 75.244 210.965 75.0336C210.891 74.8232 210.845 74.6487 210.827 74.51L211.955 74.2172C212.068 74.6537 212.228 75.0054 212.436 75.2721C212.64 75.5412 212.926 75.7162 213.292 75.7969C213.654 75.8801 214.122 75.8648 214.697 75.751L215.849 75.5104L223.138 66.3277L223.855 67.4959L217.675 75.0899L217.727 75.1746L227.296 73.1008L228.013 74.269L214.83 76.9446C214.28 77.0541 213.782 77.0795 213.335 77.0207C212.883 76.9643 212.487 76.8214 212.146 76.5917C211.804 76.3687 211.512 76.0614 211.272 75.67Z" fill="#3B4021"/>
<path d="M227.296 98.9032L240.051 90.8559L240.444 92.1469L229.438 98.9415L229.471 99.0503L242.396 98.5608L242.843 100.028L231.837 106.823L231.871 106.932L244.795 106.442L245.19 107.74L230.115 108.164L229.701 106.805L240.521 99.9854L240.494 99.8971L227.71 100.262L227.296 98.9032Z" fill="#3B4021"/>
<path d="M232.74 123.322C232.621 122.387 232.753 121.531 233.136 120.751C233.519 119.977 234.103 119.335 234.887 118.824C235.677 118.313 236.621 117.987 237.72 117.847C238.828 117.706 239.829 117.784 240.721 118.08C241.618 118.377 242.347 118.852 242.907 119.506C243.473 120.164 243.816 120.96 243.935 121.895C244.054 122.83 243.922 123.684 243.539 124.458C243.155 125.233 242.569 125.876 241.78 126.387C240.991 126.903 240.043 127.231 238.934 127.372C237.835 127.513 236.84 127.434 235.947 127.137C235.06 126.84 234.333 126.362 233.767 125.704C233.202 125.051 232.859 124.257 232.74 123.322ZM233.889 123.176C233.984 123.927 234.268 124.538 234.738 125.008C235.208 125.478 235.796 125.804 236.502 125.986C237.209 126.172 237.966 126.214 238.774 126.111C239.581 126.008 240.306 125.777 240.948 125.419C241.59 125.065 242.082 124.601 242.424 124.028C242.766 123.454 242.89 122.792 242.794 122.04C242.699 121.294 242.413 120.683 241.937 120.209C241.462 119.74 240.869 119.412 240.158 119.226C239.448 119.045 238.689 119.005 237.881 119.108C237.073 119.211 236.35 119.44 235.713 119.793C235.076 120.151 234.589 120.616 234.251 121.189C233.914 121.762 233.793 122.424 233.889 123.176Z" fill="#3B4021"/>
<path d="M233.927 135.74L244.836 135.703L244.84 136.932L243.164 136.938L243.164 137.03C243.714 137.246 244.158 137.623 244.496 138.162C244.839 138.705 245.011 139.32 245.014 140.007C245.014 140.111 245.012 140.227 245.008 140.355C245.004 140.483 244.999 140.589 244.995 140.674L243.709 140.679C243.718 140.622 243.732 140.522 243.751 140.38C243.769 140.238 243.778 140.084 243.778 139.919C243.776 139.35 243.653 138.844 243.41 138.4C243.172 137.96 242.842 137.613 242.42 137.359C241.997 137.105 241.516 136.979 240.976 136.981L233.931 137.004L233.927 135.74Z" fill="#3B4021"/>
<path d="M237.536 150.092L239.182 150.269L239.149 150.551L243.658 156.225L243.473 157.812L239.034 152.211L239.026 152.096L237.536 150.092ZM233.578 148.473L248.026 150.155L247.879 151.411L233.431 149.728L233.578 148.473ZM232.792 155.224L238.87 151.47L239.633 152.474L232.604 156.832L232.792 155.224Z" fill="#3B4021"/>
<path d="M232.566 202.179L231.767 203.489L218.203 201.394L218.136 201.503L226.203 212.607L225.404 213.917L212.988 206.341L213.639 205.273L223.661 211.389L223.72 211.292L216.254 200.987L216.883 199.956L229.461 201.882L229.52 201.785L219.499 195.67L220.15 194.603L232.566 202.179Z" fill="#3B4021"/>
<path d="M204.042 211.21C204.205 211.02 204.376 210.857 204.553 210.723C204.731 210.588 204.883 210.491 205.009 210.43L205.634 211.415C205.253 211.656 204.968 211.916 204.778 212.196C204.584 212.473 204.505 212.798 204.541 213.172C204.573 213.542 204.731 213.983 205.016 214.495L205.599 215.518L216.575 219.636L215.683 220.677L206.559 217.126L206.494 217.201L211.405 225.672L210.513 226.713L203.921 214.987C203.648 214.498 203.471 214.032 203.389 213.588C203.304 213.141 203.319 212.72 203.433 212.325C203.54 211.931 203.743 211.559 204.042 211.21Z" fill="#3B4021"/>
<path d="M186.847 233.592L198.421 243.261L197.313 244.031L187.468 235.642L187.375 235.707L191.807 247.858L190.548 248.734L180.703 240.345L180.61 240.409L185.042 252.56L183.929 253.335L178.898 239.117L180.065 238.306L189.876 246.511L189.952 246.458L185.681 234.402L186.847 233.592Z" fill="#3B4021"/>
<path d="M165.278 246.267C166.131 245.867 166.987 245.729 167.846 245.854C168.701 245.982 169.491 246.34 170.218 246.93C170.947 247.525 171.546 248.323 172.017 249.326C172.492 250.338 172.725 251.314 172.716 252.254C172.71 253.199 172.481 254.038 172.031 254.772C171.578 255.513 170.925 256.083 170.072 256.484C169.219 256.884 168.365 257.021 167.511 256.893C166.656 256.766 165.864 256.405 165.136 255.811C164.403 255.219 163.799 254.417 163.324 253.405C162.854 252.402 162.623 251.431 162.631 250.49C162.642 249.554 162.873 248.716 163.326 247.975C163.774 247.237 164.425 246.667 165.278 246.267ZM165.77 247.315C165.084 247.637 164.59 248.094 164.287 248.686C163.984 249.278 163.854 249.937 163.898 250.665C163.937 251.395 164.129 252.128 164.475 252.865C164.821 253.603 165.263 254.221 165.801 254.722C166.335 255.225 166.928 255.551 167.579 255.7C168.229 255.85 168.898 255.764 169.583 255.442C170.265 255.122 170.758 254.663 171.063 254.065C171.364 253.469 171.494 252.804 171.453 252.07C171.408 251.338 171.212 250.604 170.866 249.866C170.52 249.129 170.081 248.511 169.549 248.013C169.013 247.517 168.421 247.196 167.772 247.05C167.123 246.905 166.456 246.993 165.77 247.315Z" fill="#3B4021"/>
<path d="M153.823 251.207L157.206 261.579L156.038 261.96L155.518 260.366L155.431 260.395C155.394 260.984 155.171 261.523 154.762 262.01C154.35 262.503 153.818 262.856 153.165 263.069C153.066 263.101 152.955 263.135 152.832 263.17C152.709 263.205 152.606 263.233 152.524 263.255L152.125 262.033C152.182 262.025 152.281 262.007 152.422 261.981C152.563 261.955 152.712 261.917 152.87 261.865C153.41 261.689 153.854 261.417 154.202 261.049C154.548 260.688 154.776 260.267 154.889 259.787C155.001 259.307 154.974 258.811 154.806 258.297L152.621 251.599L153.823 251.207Z" fill="#3B4021"/>
<circle cx="39" cy="37" r="4" fill="#E6DDE4"/>
<path d="M141.272 259.047L141.608 260.668L141.329 260.723L137.314 266.756L135.746 267.067L139.715 261.123L139.822 261.08L141.272 259.047ZM141.598 254.783L144.431 269.05L143.191 269.296L140.358 255.029L141.598 254.783ZM134.931 256.107L140.37 260.74L139.648 261.774L133.343 256.422L134.931 256.107Z" fill="#3B4021"/>
<circle cx="188" cy="36" r="4" fill="#E6DDE4"/>
<circle cx="234" cy="177" r="4" fill="#E6DDE4"/>
<path d="M149.75 158C145.947 158 140.269 161.757 135.502 165.559C129.352 170.449 123.987 176.291 119.892 182.99C116.822 188.012 113.875 194.101 113.875 199M113.875 199C113.875 194.101 110.928 188.007 107.858 182.99C103.758 176.291 98.3924 170.449 92.2526 165.559C87.4813 161.757 81.7925 158 78 158M113.875 199L113.875 76" stroke="#3B4021"/>
</svg>
