<svg width="290" height="291" viewBox="0 0 290 291" fill="none" xmlns="http://www.w3.org/2000/svg">
<circle cx="274.247" cy="170.743" r="2.5" fill="#3B4021"/>
<circle cx="209.247" cy="28.7427" r="2.5" fill="#3B4021"/>
<circle cx="54.2473" cy="48.7427" r="2.5" fill="#3B4021"/>
<circle cx="22.2473" cy="200.743" r="2.5" fill="#3B4021"/>
<circle cx="159.247" cy="278.743" r="2.5" fill="#3B4021"/>
<path d="M131.601 286.204L130.645 286.066L126.99 272.135L126.892 272.121L119.454 284.453L118.498 284.316L120.572 269.919L121.415 270.04L119.642 282.349L119.726 282.361L126.709 270.803L127.538 270.923L130.974 283.982L131.058 283.994L132.832 271.685L133.675 271.807L131.601 286.204Z" fill="#3B4021"/>
<path d="M112.233 263.618C112.441 263.681 112.64 263.767 112.83 263.874C113.02 263.981 113.185 264.096 113.326 264.218L112.86 264.871C112.484 264.578 112.117 264.402 111.759 264.342C111.397 264.281 111.04 264.345 110.69 264.536C110.34 264.726 109.992 265.055 109.646 265.524L108.773 266.683L109.371 278.427L108.482 278.156L108.024 267.777L107.956 267.756L101.783 276.113L100.893 275.841L109.019 264.976C109.33 264.556 109.661 264.227 110.011 263.987C110.361 263.747 110.724 263.598 111.098 263.539C111.469 263.474 111.848 263.5 112.233 263.618Z" fill="#3B4021"/>
<path d="M84.6604 256.886L80.6237 271.421L79.8314 270.947L83.5483 257.818L83.4752 257.774L73.7123 267.286L72.7859 266.732L76.5516 253.632L76.4785 253.588L66.6668 263.071L65.8806 262.6L76.78 252.171L77.6576 252.696L73.9662 265.741L74.0332 265.781L83.7828 256.361L84.6604 256.886Z" fill="#3B4021"/>
<path d="M64.2598 242.563C64.9479 243.143 65.4044 243.843 65.6293 244.664C65.8511 245.488 65.8414 246.356 65.6002 247.267C65.359 248.178 64.8877 249.05 64.1862 249.883C63.4816 250.72 62.7024 251.332 61.8486 251.721C60.9917 252.114 60.1382 252.271 59.2881 252.193C58.4379 252.114 57.6688 251.785 56.9807 251.206C56.2926 250.626 55.8377 249.924 55.6158 249.1C55.394 248.275 55.4037 247.408 55.6449 246.497C55.8861 245.585 56.3574 244.713 57.059 243.88C57.7605 243.047 58.5397 242.435 59.3966 242.042C60.2534 241.649 61.1069 241.492 61.9571 241.571C62.8042 241.653 63.5718 241.984 64.2598 242.563ZM63.7428 243.177C63.1598 242.686 62.5122 242.422 61.8 242.386C61.0843 242.346 60.3705 242.506 59.6587 242.866C58.9433 243.223 58.2958 243.746 57.7163 244.434C57.1368 245.122 56.7335 245.847 56.5064 246.609C56.2763 247.375 56.2397 248.106 56.3967 248.801C56.5507 249.5 56.9192 250.096 57.5023 250.587C58.0854 251.078 58.7345 251.34 59.4497 251.372C60.1618 251.409 60.8756 251.249 61.591 250.892C62.3034 250.538 62.9493 250.018 63.5288 249.329C64.1084 248.641 64.515 247.916 64.7488 247.153C64.9789 246.388 65.0154 245.657 64.8584 244.961C64.6978 244.263 64.3259 243.668 63.7428 243.177Z" fill="#3B4021"/>
<path d="M54.8157 234.101L46.8868 241.593L46.3063 240.979L47.5452 239.808L47.4915 239.752C46.9228 239.963 46.3228 239.98 45.6915 239.801C45.0567 239.626 44.4922 239.277 43.9979 238.753C43.9459 238.698 43.8938 238.643 43.8418 238.588C43.7898 238.533 43.7427 238.48 43.7006 238.428L44.3355 237.828C44.3711 237.873 44.4131 237.928 44.4615 237.993C44.5032 238.058 44.5631 238.131 44.6412 238.214C45.0574 238.654 45.5228 238.957 46.0373 239.123C46.5485 239.284 47.0637 239.306 47.5829 239.186C48.0986 239.07 48.5698 238.811 48.9966 238.408L54.2206 233.471L54.8157 234.101Z" fill="#3B4021"/>
<path d="M43.1437 227.288L42.1608 228.049L42.0237 227.868L34.4229 226.776L33.7419 225.875L40.7273 226.871L40.807 226.918L43.1437 227.288ZM46.997 225.319L35.3939 234.09L34.8714 233.399L46.4745 224.628L46.997 225.319ZM42.9753 219.999L41.1106 227.178L40.2747 227.026L42.3072 219.115L42.9753 219.999Z" fill="#3B4021"/>
<path d="M8.0279 177.702L7.85545 176.752L19.9089 168.869L19.8911 168.771L5.83674 165.626L5.66429 164.676L19.976 162.079L20.1282 162.918L7.89194 165.138L7.90716 165.222L21.083 168.18L21.2327 169.004L9.936 176.403L9.95122 176.487L22.1875 174.266L22.3397 175.105L8.0279 177.702Z" fill="#3B4021"/>
<path d="M23.3088 152.172C23.3146 152.39 23.2966 152.606 23.255 152.82C23.2133 153.034 23.1569 153.228 23.0856 153.4L22.3192 153.165C22.4778 152.715 22.5286 152.311 22.4717 151.953C22.4147 151.59 22.2405 151.272 21.9491 151C21.6577 150.729 21.2349 150.503 20.6807 150.324L19.3043 149.863L8.35615 154.154L8.33144 153.224L18.03 149.499L18.0281 149.428L8.14547 146.223L8.12076 145.293L21.0013 149.555C21.4982 149.717 21.9158 149.926 22.2542 150.182C22.5925 150.439 22.8491 150.735 23.0238 151.071C23.2031 151.403 23.2981 151.77 23.3088 152.172Z" fill="#3B4021"/>
<path d="M20.9514 123.888L5.88645 124.668L6.08486 123.766L19.7149 123.129L19.7332 123.046L7.61716 116.802L7.84914 115.748L21.467 115.166L21.4853 115.083L9.38144 108.784L9.57832 107.889L22.9247 114.92L22.705 115.918L9.16273 116.553L9.14595 116.629L21.1711 122.889L20.9514 123.888Z" fill="#3B4021"/>
<path d="M28.0679 99.9991C27.7365 100.835 27.2171 101.49 26.5099 101.964C25.7984 102.436 24.9723 102.702 24.0317 102.762C23.0911 102.822 22.1146 102.651 21.1022 102.25C20.0854 101.847 19.2572 101.302 18.6176 100.616C17.9736 99.9276 17.554 99.1679 17.3588 98.3367C17.1636 97.5056 17.2318 96.6719 17.5633 95.8355C17.8947 94.9992 18.4163 94.3452 19.1279 93.8734C19.8394 93.4017 20.6655 93.1357 21.6061 93.0756C22.5467 93.0155 23.5232 93.1861 24.5356 93.5874C25.548 93.9886 26.3762 94.5334 27.0202 95.2215C27.6643 95.9097 28.0838 96.6694 28.279 97.5005C28.4698 98.3299 28.3994 99.1628 28.0679 99.9991ZM27.3218 99.7034C27.6027 98.9947 27.6476 98.2969 27.4564 97.6099C27.2669 96.9186 26.8886 96.2924 26.3215 95.7315C25.7562 95.1662 25.0553 94.7178 24.219 94.3863C23.3827 94.0548 22.5671 93.9022 21.7724 93.9284C20.9732 93.9529 20.2687 94.1499 19.6588 94.5193C19.0444 94.887 18.5968 95.4252 18.316 96.1339C18.0351 96.8425 17.9924 97.5412 18.188 98.2299C18.3792 98.9169 18.7575 99.5431 19.3229 100.108C19.8839 100.672 20.5825 101.12 21.4188 101.451C22.2551 101.782 23.072 101.938 23.8694 101.918C24.6686 101.894 25.3731 101.697 25.983 101.327C26.5947 100.953 27.041 100.412 27.3218 99.7034Z" fill="#3B4021"/>
<path d="M33.0998 88.3595L23.4799 83.215L23.8785 82.4697L25.3816 83.2735L25.4184 83.2046C25.0374 82.7324 24.8315 82.1686 24.8008 81.5132C24.7659 80.8555 24.9181 80.2094 25.2575 79.5748C25.2932 79.508 25.329 79.4412 25.3647 79.3744C25.4004 79.3076 25.436 79.246 25.4714 79.1898L26.2418 79.6018C26.2108 79.6497 26.1722 79.7068 26.1258 79.7734C26.0776 79.8335 26.0267 79.9136 25.9731 80.0138C25.6873 80.5483 25.5475 81.0857 25.5539 81.626C25.5625 82.1622 25.7056 82.6575 25.9834 83.1121C26.2569 83.5645 26.6526 83.9291 27.1703 84.2059L33.5084 87.5955L33.0998 88.3595Z" fill="#3B4021"/>
<path d="M35.8607 75.1296L34.8274 74.4386L34.9559 74.2511L33.5817 66.6963L34.2202 65.7648L35.49 72.7057L35.4711 72.7961L35.8607 75.1296ZM38.9499 78.1598L26.9524 69.9362L27.4423 69.2215L39.4398 77.4451L38.9499 78.1598ZM42.7205 72.659L35.3206 73.1664L35.1994 72.3257L43.3469 71.7451L42.7205 72.659Z" fill="#3B4021"/>
<path d="M71.9893 25.2132L72.8361 24.7486L84.131 33.684L84.2182 33.6362L82.7487 19.3094L83.5955 18.8448L90.5927 31.5967L89.8455 32.0067L83.8631 21.104L83.7884 21.145L85.1569 34.5793L84.4222 34.9825L73.8259 26.6115L73.7512 26.6525L79.7336 37.5551L78.9864 37.9651L71.9893 25.2132Z" fill="#3B4021"/>
<path d="M101.045 31.6189C100.84 31.6933 100.63 31.7447 100.413 31.7731C100.197 31.8014 99.9958 31.8091 99.8097 31.7962L99.7902 30.9946C100.267 31.0027 100.666 30.9229 100.988 30.7554C101.314 30.5863 101.56 30.3205 101.726 29.958C101.891 29.5955 101.971 29.123 101.966 28.5405L101.967 27.089L94.4286 18.0641L95.303 17.7461L101.908 25.765L101.975 25.7408L101.884 15.352L102.758 15.0339L102.797 28.601C102.8 29.1237 102.734 29.5861 102.598 29.9882C102.462 30.3903 102.263 30.7275 101.999 30.9998C101.741 31.2749 101.423 31.4813 101.045 31.6189Z" fill="#3B4021"/>
<path d="M127.125 20.4229L121.614 6.38089L122.532 6.28341L127.454 19.0096L127.539 19.0006L129.623 5.53057L130.696 5.41659L135.562 18.1488L135.647 18.1398L137.787 4.66375L138.698 4.56702L136.257 19.4533L135.24 19.5613L130.348 6.91766L130.271 6.92591L128.142 20.3149L127.125 20.4229Z" fill="#3B4021"/>
<path d="M152.039 19.6049C151.14 19.5554 150.355 19.2703 149.682 18.7495C149.009 18.2241 148.495 17.5248 148.14 16.6516C147.785 15.7785 147.637 14.7983 147.697 13.7109C147.757 12.6188 148.012 11.6607 148.46 10.8366C148.909 10.0077 149.496 9.3691 150.223 8.92067C150.949 8.47225 151.762 8.27277 152.66 8.32223C153.558 8.37169 154.344 8.65917 155.017 9.18465C155.69 9.71013 156.204 10.4094 156.559 11.2825C156.914 12.1556 157.061 13.1359 157.001 14.2233C156.941 15.3106 156.687 16.2687 156.238 17.0976C155.79 17.9264 155.202 18.5651 154.475 19.0135C153.749 19.4572 152.937 19.6543 152.039 19.6049ZM152.083 18.8035C152.844 18.8454 153.52 18.6669 154.111 18.2679C154.707 17.8692 155.181 17.312 155.533 16.5964C155.89 15.8811 156.094 15.0743 156.143 14.176C156.193 13.2777 156.079 12.4559 155.802 11.7104C155.526 10.9601 155.116 10.3543 154.572 9.89282C154.029 9.42663 153.377 9.17258 152.615 9.13067C151.854 9.08875 151.178 9.26965 150.587 9.67336C149.996 10.0723 149.522 10.6295 149.165 11.3449C148.808 12.0555 148.605 12.8599 148.555 13.7582C148.506 14.6564 148.617 15.4806 148.889 16.2305C149.165 16.9808 149.575 17.5866 150.119 18.0481C150.667 18.5098 151.322 18.7616 152.083 18.8035Z" fill="#3B4021"/>
<path d="M164.673 20.6899L166.505 9.93578L167.338 10.0777L167.052 11.7581L167.129 11.7712C167.456 11.2602 167.925 10.8863 168.537 10.6495C169.15 10.408 169.811 10.3477 170.521 10.4686C170.595 10.4813 170.67 10.494 170.745 10.5068C170.819 10.5195 170.889 10.5338 170.954 10.5496L170.807 11.4107C170.752 11.3965 170.685 11.378 170.607 11.3551C170.535 11.3284 170.443 11.3055 170.331 11.2864C169.733 11.1846 169.179 11.2224 168.669 11.3996C168.163 11.5776 167.739 11.8703 167.395 12.2777C167.053 12.6805 166.833 13.1712 166.734 13.75L165.527 20.8355L164.673 20.6899Z" fill="#3B4021"/>
<path d="M178.096 19.1175L178.424 17.9186L178.643 17.9811L185.373 14.2843L186.459 14.5948L180.278 17.998L180.186 18.0088L178.096 19.1175ZM176.2 23.0076L180.2 9.02276L181.033 9.261L177.034 23.2458L176.2 23.0076ZM182.612 24.8413L179.787 17.9833L180.546 17.602L183.678 25.1459L182.612 24.8413Z" fill="#3B4021"/>
<path d="M235.165 38.301L235.872 38.9594L230.93 52.4867L231.002 52.5545L244.145 46.666L244.852 47.3244L234.938 57.9677L234.315 57.3868L242.791 48.287L242.728 48.2289L230.401 53.7417L229.788 53.1705L234.413 40.4835L234.351 40.4254L225.875 49.5253L225.251 48.9444L235.165 38.301Z" fill="#3B4021"/>
<path d="M238.195 67.8998C238.06 67.7288 237.945 67.545 237.851 67.3483C237.756 67.1517 237.685 66.9631 237.639 66.7823L238.394 66.5124C238.536 66.9674 238.737 67.3215 238.997 67.5747C239.26 67.8316 239.59 67.9817 239.986 68.0251C240.382 68.0685 240.855 67.9963 241.407 67.8085L242.785 67.3543L248.991 57.366L249.567 58.0965L244.024 66.8836L244.068 66.9393L253.904 63.5945L254.481 64.3249L241.61 68.6163C241.115 68.7838 240.655 68.866 240.231 68.8631C239.806 68.8602 239.423 68.7763 239.082 68.6113C238.74 68.4529 238.444 68.2157 238.195 67.8998Z" fill="#3B4021"/>
<path d="M257.006 89.1528L268.611 79.5151L268.991 80.3563L258.451 89.0214L258.486 89.0991L271.93 86.8533L272.375 87.8369L261.811 96.4502L261.846 96.5279L275.313 94.3338L275.691 95.1686L260.79 97.5199L260.369 96.5881L270.84 87.9775L270.808 87.9063L257.427 90.0846L257.006 89.1528Z" fill="#3B4021"/>
<path d="M265.596 112.553C265.361 111.684 265.385 110.849 265.669 110.046C265.957 109.242 266.459 108.535 267.177 107.924C267.895 107.313 268.779 106.866 269.831 106.582C270.887 106.296 271.876 106.237 272.799 106.404C273.727 106.571 274.518 106.928 275.171 107.478C275.825 108.027 276.269 108.736 276.504 109.604C276.739 110.472 276.712 111.309 276.424 112.112C276.136 112.916 275.633 113.623 274.916 114.234C274.198 114.845 273.313 115.293 272.262 115.577C271.211 115.861 270.221 115.92 269.294 115.754C268.366 115.588 267.575 115.23 266.921 114.681C266.272 114.13 265.83 113.421 265.596 112.553ZM266.37 112.343C266.569 113.079 266.951 113.665 267.515 114.101C268.081 114.542 268.758 114.817 269.548 114.927C270.34 115.042 271.169 114.982 272.038 114.747C272.906 114.513 273.651 114.147 274.272 113.65C274.898 113.153 275.345 112.573 275.612 111.912C275.885 111.25 275.921 110.551 275.722 109.815C275.523 109.079 275.14 108.494 274.571 108.059C274.007 107.623 273.329 107.348 272.538 107.233C271.751 107.117 270.923 107.176 270.055 107.411C269.186 107.646 268.439 108.01 267.812 108.503C267.186 109.001 266.739 109.58 266.472 110.241C266.205 110.907 266.172 111.607 266.37 112.343Z" fill="#3B4021"/>
<path d="M268.528 124.89L279.314 123.256L279.44 124.092L277.755 124.347L277.767 124.425C278.355 124.575 278.857 124.904 279.274 125.41C279.695 125.916 279.96 126.525 280.067 127.237C280.079 127.312 280.09 127.387 280.102 127.462C280.113 127.536 280.121 127.607 280.126 127.673L279.263 127.804C279.259 127.747 279.256 127.678 279.253 127.597C279.256 127.52 279.248 127.425 279.231 127.313C279.141 126.714 278.931 126.2 278.603 125.771C278.275 125.346 277.864 125.035 277.37 124.837C276.88 124.638 276.345 124.582 275.764 124.67L268.658 125.746L268.528 124.89Z" fill="#3B4021"/>
<path d="M274.231 137.142L275.472 137.078L275.481 137.305L281.102 142.536L281.148 143.665L275.978 138.863L275.939 138.779L274.231 137.142ZM269.942 136.563L284.476 135.974L284.511 136.84L269.977 137.428L269.942 136.563ZM270.212 143.226L275.838 138.392L276.438 138.994L270.257 144.333L270.212 143.226Z" fill="#3B4021"/>
<path d="M272.854 200.848L272.442 201.722L258.052 201.122L258.01 201.212L267.613 211.945L267.2 212.819L254.048 206.606L254.412 205.836L265.657 211.147L265.693 211.07L256.696 201L257.054 200.242L270.547 200.795L270.583 200.718L259.338 195.407L259.702 194.636L272.854 200.848Z" fill="#3B4021"/>
<path d="M245.574 212.726C245.696 212.546 245.837 212.381 245.995 212.231C246.154 212.08 246.312 211.956 246.47 211.857L246.957 212.495C246.566 212.768 246.29 213.067 246.128 213.392C245.963 213.72 245.92 214.08 245.999 214.47C246.078 214.861 246.291 215.29 246.637 215.759L247.489 216.934L258.89 219.812L258.369 220.583L248.313 217.971L248.274 218.03L254.448 226.385L253.927 227.156L245.929 216.197C245.619 215.777 245.401 215.363 245.275 214.958C245.149 214.553 245.112 214.163 245.166 213.787C245.213 213.413 245.349 213.06 245.574 212.726Z" fill="#3B4021"/>
<path d="M231.04 237.104L243.747 245.233L243.061 245.851L231.604 238.441L231.541 238.498L237.764 250.624L236.962 251.347L225.547 243.899L225.484 243.956L231.665 256.12L230.984 256.734L224.218 243.251L224.977 242.567L236.362 249.928L236.42 249.876L230.28 237.789L231.04 237.104Z" fill="#3B4021"/>
<path d="M211.355 252.396C212.111 251.909 212.915 251.678 213.765 251.704C214.618 251.734 215.445 251.999 216.245 252.497C217.045 252.995 217.74 253.702 218.33 254.617C218.923 255.536 219.28 256.461 219.401 257.392C219.524 258.326 219.424 259.188 219.099 259.978C218.774 260.767 218.234 261.406 217.478 261.893C216.722 262.381 215.917 262.609 215.064 262.579C214.211 262.549 213.384 262.285 212.584 261.787C211.784 261.288 211.089 260.582 210.499 259.666C209.909 258.751 209.552 257.826 209.428 256.892C209.305 255.957 209.405 255.095 209.73 254.306C210.057 253.52 210.599 252.884 211.355 252.396ZM211.79 253.071C211.149 253.484 210.707 254.025 210.463 254.695C210.215 255.368 210.158 256.097 210.293 256.883C210.424 257.672 210.733 258.445 211.221 259.201C211.708 259.957 212.283 260.555 212.945 260.996C213.609 261.441 214.297 261.691 215.008 261.745C215.721 261.803 216.398 261.626 217.039 261.213C217.68 260.8 218.121 260.256 218.362 259.582C218.606 258.912 218.663 258.183 218.532 257.394C218.403 256.609 218.095 255.839 217.608 255.083C217.121 254.327 216.547 253.725 215.886 253.277C215.222 252.833 214.534 252.583 213.823 252.529C213.108 252.477 212.431 252.658 211.79 253.071Z" fill="#3B4021"/>
<path d="M200.492 258.937L205.324 268.718L204.566 269.092L203.811 267.564L203.741 267.598C203.777 268.204 203.616 268.783 203.26 269.333C202.906 269.889 202.406 270.326 201.761 270.645C201.693 270.678 201.625 270.712 201.557 270.745C201.489 270.779 201.424 270.808 201.363 270.833L200.976 270.05C201.029 270.029 201.094 270.005 201.17 269.978C201.244 269.957 201.332 269.922 201.434 269.871C201.977 269.603 202.404 269.247 202.713 268.804C203.018 268.363 203.189 267.876 203.228 267.345C203.269 266.818 203.159 266.291 202.899 265.765L199.715 259.321L200.492 258.937Z" fill="#3B4021"/>
<path d="M190.55 268.093L190.989 269.256L190.775 269.333L187.499 276.278L186.437 276.664L189.442 270.28L189.51 270.217L190.55 268.093ZM189.8 263.831L194.776 277.499L193.961 277.795L188.986 264.127L189.8 263.831ZM183.533 266.112L189.848 270.004L189.457 270.758L182.492 266.491L183.533 266.112Z" fill="#3B4021"/>
<g clip-path="url(#clip0_33_794)">
<path d="M180.375 166C176.572 166 170.894 169.757 166.127 173.559C159.977 178.449 154.612 184.291 150.517 190.99C147.447 196.012 144.5 202.101 144.5 207M144.5 207C144.5 202.101 141.553 196.007 138.483 190.99C134.383 184.291 129.017 178.449 122.878 173.559C118.106 169.757 112.418 166 108.625 166M144.5 207L144.5 84" stroke="#3B4021" stroke-width="0.958333"/>
</g>
<defs>
<clipPath id="clip0_33_794">
<rect width="123" height="123" fill="white" transform="translate(206 207) rotate(180)"/>
</clipPath>
</defs>
</svg>
