<svg width="158" height="176" viewBox="0 0 158 176" fill="none" xmlns="http://www.w3.org/2000/svg">
<path d="M151.301 105.069C152.161 105.069 152.859 104.372 152.859 103.512C152.859 102.652 152.161 101.955 151.301 101.955C150.441 101.955 149.744 102.652 149.744 103.512C149.744 104.372 150.441 105.069 151.301 105.069Z" fill="#3B4021"/>
<path d="M110.813 16.6164C111.673 16.6164 112.37 15.9192 112.37 15.0592C112.37 14.1991 111.673 13.5019 110.813 13.5019C109.953 13.5019 109.255 14.1991 109.255 15.0592C109.255 15.9192 109.953 16.6164 110.813 16.6164Z" fill="#3B4021"/>
<path d="M14.2626 29.0745C15.1226 29.0745 15.8198 28.3773 15.8198 27.5172C15.8198 26.6572 15.1226 25.96 14.2626 25.96C13.4025 25.96 12.7053 26.6572 12.7053 27.5172C12.7053 28.3773 13.4025 29.0745 14.2626 29.0745Z" fill="#3B4021"/>
<path d="M79.6674 172.343C80.5274 172.343 81.2246 171.646 81.2246 170.786C81.2246 169.925 80.5274 169.228 79.6674 169.228C78.8073 169.228 78.1101 169.925 78.1101 170.786C78.1101 171.646 78.8073 172.343 79.6674 172.343Z" fill="#3B4021"/>
<path d="M62.4466 175.433L61.8511 175.347L59.5744 166.669L59.5133 166.661L54.8802 174.342L54.2847 174.257L55.5766 165.289L56.1017 165.364L54.9973 173.032L55.0496 173.039L59.3993 165.84L59.9157 165.914L62.056 174.049L62.1083 174.056L63.2134 166.389L63.7385 166.465L62.4466 175.433Z" fill="#3B4021"/>
<path d="M50.3821 161.364C50.5117 161.403 50.6356 161.457 50.754 161.524C50.8723 161.59 50.9751 161.662 51.0629 161.738L50.7727 162.145C50.5384 161.962 50.3098 161.852 50.0868 161.815C49.8614 161.777 49.639 161.817 49.421 161.936C49.2029 162.054 48.9862 162.259 48.7706 162.551L48.2269 163.273L48.5993 170.589L48.0456 170.42L47.7603 163.955L47.7179 163.942L43.8727 169.147L43.3184 168.978L48.3801 162.21C48.5738 161.948 48.78 161.743 48.998 161.594C49.216 161.444 49.4421 161.352 49.6751 161.315C49.9062 161.274 50.1423 161.291 50.3821 161.364Z" fill="#3B4021"/>
<path d="M33.2071 157.171L30.6926 166.225L30.199 165.929L32.5143 157.751L32.4688 157.724L26.3874 163.649L25.8104 163.304L28.156 155.144L28.1105 155.116L21.9988 161.023L21.509 160.73L28.2983 154.234L28.845 154.561L26.5456 162.686L26.5873 162.711L32.6604 156.844L33.2071 157.171Z" fill="#3B4021"/>
<path d="M20.4995 148.249C20.9282 148.61 21.2125 149.046 21.3526 149.558C21.4908 150.071 21.4847 150.611 21.3345 151.179C21.1842 151.746 20.8907 152.29 20.4537 152.808C20.0148 153.33 19.5294 153.711 18.9976 153.953C18.4638 154.198 17.9322 154.296 17.4026 154.247C16.873 154.198 16.394 153.993 15.9654 153.633C15.5367 153.271 15.2534 152.834 15.1151 152.321C14.977 151.807 14.983 151.267 15.1333 150.699C15.2835 150.131 15.5771 149.588 16.0141 149.069C16.4511 148.55 16.9365 148.169 17.4702 147.924C18.0039 147.679 18.5356 147.582 19.0652 147.631C19.5928 147.682 20.071 147.888 20.4995 148.249ZM20.1775 148.631C19.8143 148.325 19.4109 148.161 18.9673 148.139C18.5215 148.114 18.0769 148.213 17.6335 148.438C17.1879 148.66 16.7845 148.986 16.4236 149.414C16.0626 149.843 15.8114 150.294 15.6699 150.769C15.5266 151.246 15.5038 151.702 15.6016 152.134C15.6975 152.57 15.927 152.941 16.2903 153.247C16.6535 153.553 17.0578 153.716 17.5033 153.736C17.9469 153.759 18.3915 153.659 18.8371 153.437C19.2809 153.216 19.6832 152.893 20.0442 152.463C20.4052 152.035 20.6585 151.583 20.8041 151.108C20.9475 150.631 20.9702 150.176 20.8724 149.743C20.7724 149.308 20.5407 148.937 20.1775 148.631Z" fill="#3B4021"/>
<path d="M14.6168 142.978L9.67781 147.645L9.31622 147.262L10.0879 146.533L10.0545 146.498C9.70024 146.629 9.3265 146.64 8.93326 146.528C8.53784 146.419 8.18621 146.202 7.8783 145.876C7.84591 145.841 7.81346 145.807 7.78107 145.773C7.74868 145.738 7.71934 145.705 7.69312 145.673L8.0886 145.299C8.11077 145.327 8.13693 145.362 8.16708 145.402C8.19306 145.443 8.23037 145.488 8.27902 145.54C8.53827 145.814 8.82817 146.003 9.14866 146.106C9.46709 146.206 9.78801 146.22 10.1114 146.145C10.4327 146.073 10.7262 145.912 10.992 145.661L14.2461 142.585L14.6168 142.978Z" fill="#3B4021"/>
<path d="M7.34617 138.734L6.73392 139.208L6.64852 139.095L1.91394 138.415L1.48975 137.854L5.84098 138.474L5.89063 138.503L7.34617 138.734ZM9.74641 137.507L2.51878 142.971L2.19332 142.541L9.42094 137.077L9.74641 137.507ZM7.24127 134.194L6.07974 138.665L5.55906 138.571L6.82511 133.643L7.24127 134.194Z" fill="#3B4021"/>
<path d="M1.08969 52.1948L-4.90259 48.9902L-4.6543 48.526L-3.71801 49.0267L-3.69509 48.9837C-3.93241 48.6896 -4.06067 48.3384 -4.07979 47.9302C-4.10153 47.5205 -4.00673 47.118 -3.79531 46.7227C-3.77308 46.6811 -3.75077 46.6395 -3.72854 46.5979C-3.7063 46.5563 -3.68412 46.5179 -3.66207 46.4829L-3.18219 46.7395C-3.2015 46.7694 -3.22554 46.805 -3.25445 46.8464C-3.28447 46.8839 -3.31617 46.9338 -3.34956 46.9962C-3.52759 47.3291 -3.61467 47.6639 -3.61068 48.0004C-3.60533 48.3344 -3.51619 48.643 -3.34315 48.9261C-3.17278 49.2079 -2.9263 49.435 -2.60382 49.6075L1.34421 51.7189L1.08969 52.1948Z" fill="#3B4021"/>
<path d="M2.80952 43.9537L2.16587 43.5233L2.24591 43.4065L1.38992 38.7006L1.78764 38.1204L2.57861 42.4439L2.56684 42.5002L2.80952 43.9537ZM4.7338 45.8413L-2.7395 40.7187L-2.43434 40.2736L5.03896 45.3961L4.7338 45.8413ZM7.08252 42.4148L2.47309 42.7308L2.39759 42.2072L7.47271 41.8455L7.08252 42.4148Z" fill="#3B4021"/>
<path d="M25.3142 12.8606L25.8417 12.5712L32.8773 18.1371L32.9316 18.1073L32.0163 9.18308L32.5438 8.89368L36.9023 16.8369L36.4369 17.0923L32.7105 10.3009L32.6639 10.3265L33.5164 18.6948L33.0587 18.9459L26.4582 13.7316L26.4117 13.7571L30.1382 20.5484L29.6727 20.8038L25.3142 12.8606Z" fill="#3B4021"/>
<path d="M43.4131 16.8507C43.2854 16.8971 43.1546 16.9291 43.0195 16.9468C42.8849 16.9644 42.7596 16.9692 42.6437 16.9611L42.6315 16.4618C42.9285 16.4669 43.1771 16.4172 43.3776 16.3128C43.5807 16.2075 43.7339 16.0419 43.8373 15.8161C43.9401 15.5903 43.9899 15.296 43.9868 14.9332L43.9875 14.029L39.2917 8.40736L39.8364 8.20928L43.9507 13.2043L43.9924 13.1892L43.9358 6.71798L44.4802 6.51984L44.5045 14.9708C44.5063 15.2964 44.4652 15.5845 44.3805 15.8349C44.2958 16.0854 44.1718 16.2955 44.0074 16.4651C43.8467 16.6364 43.6486 16.765 43.4131 16.8507Z" fill="#3B4021"/>
<path d="M59.6584 9.8767L56.2256 1.12987L56.7974 1.06915L59.8634 8.99635L59.9163 8.99074L61.2144 0.6002L61.8828 0.529201L64.9139 8.46015L64.9668 8.45455L66.2998 0.0602537L66.8673 0L65.3468 9.27273L64.7133 9.34001L61.666 1.46422L61.6181 1.46936L60.2919 9.80943L59.6584 9.8767Z" fill="#3B4021"/>
<path d="M75.1776 9.36715C74.6176 9.33632 74.1286 9.15873 73.7094 8.83432C73.2902 8.50704 72.97 8.07145 72.7489 7.52753C72.5277 6.98367 72.4356 6.3731 72.4729 5.69575C72.5103 5.01548 72.6691 4.41867 72.9482 3.90534C73.2279 3.38901 73.5935 2.99122 74.0464 2.7119C74.4986 2.43257 75.005 2.30832 75.5644 2.33912C76.1238 2.36993 76.6134 2.54901 77.0326 2.87633C77.4518 3.20365 77.772 3.63923 77.9931 4.18309C78.2142 4.72695 78.3058 5.33758 78.2684 6.01493C78.2311 6.69221 78.0728 7.28902 77.7932 7.80534C77.5141 8.32161 77.1478 8.71946 76.695 8.99877C76.2428 9.27515 75.7369 9.39792 75.1776 9.36715ZM75.205 8.86796C75.679 8.89405 76.1001 8.78287 76.4682 8.53433C76.8395 8.28598 77.1347 7.93889 77.354 7.49314C77.5764 7.04758 77.7035 6.54502 77.734 5.98546C77.7651 5.42591 77.6941 4.91401 77.5216 4.44963C77.3496 3.98227 77.0943 3.60491 76.7554 3.31745C76.4172 3.02706 76.011 2.86881 75.5364 2.84271C75.0623 2.81659 74.6413 2.92928 74.2731 3.18075C73.905 3.42925 73.6097 3.77633 73.3873 4.22196C73.165 4.6646 73.0385 5.16566 73.0074 5.72521C72.9769 6.28471 73.046 6.79811 73.2154 7.26522C73.3874 7.73259 73.6427 8.10994 73.9816 8.39741C74.323 8.68501 74.731 8.84186 75.205 8.86796Z" fill="#3B4021"/>
<path d="M83.0474 10.043L84.1885 3.34424L84.7074 3.43264L84.5293 4.47937L84.5772 4.48753C84.7809 4.16923 85.073 3.93632 85.4543 3.78882C85.8361 3.63839 86.2478 3.60083 86.6901 3.67613C86.7362 3.68405 86.7829 3.69196 86.8296 3.69993C86.8757 3.70784 86.9193 3.71675 86.9598 3.72659L86.8683 4.26297C86.834 4.25413 86.7923 4.2426 86.7437 4.22834C86.6988 4.21171 86.6415 4.19744 86.5718 4.18555C86.1993 4.12213 85.8542 4.14568 85.5365 4.25606C85.2213 4.36694 84.9572 4.54926 84.7429 4.80303C84.5299 5.05394 84.3928 5.3596 84.3312 5.72013L83.5793 10.1337L83.0474 10.043Z" fill="#3B4021"/>
<path d="M91.4086 9.06357L91.6129 8.31677L91.7493 8.3557L95.9414 6.05295L96.6179 6.24636L92.7677 8.36623L92.7104 8.37296L91.4086 9.06357ZM90.2275 11.4867L92.7192 2.77551L93.238 2.92391L90.747 11.6351L90.2275 11.4867ZM94.2216 12.629L92.4619 8.35707L92.9347 8.11956L94.8856 12.8187L94.2216 12.629Z" fill="#3B4021"/>
<path d="M126.957 21.0131L127.397 21.4232L124.319 29.8494L124.364 29.8916L132.551 26.2237L132.991 26.6338L126.816 33.2635L126.427 32.9017L131.707 27.2334L131.668 27.1972L123.989 30.6311L123.608 30.2753L126.489 22.3726L126.45 22.3364L121.17 28.0047L120.781 27.6429L126.957 21.0131Z" fill="#3B4021"/>
<path d="M128.844 39.4503C128.76 39.3438 128.689 39.2293 128.63 39.1068C128.571 38.9843 128.527 38.8668 128.498 38.7542L128.968 38.5861C129.057 38.8695 129.182 39.0901 129.344 39.2478C129.508 39.4078 129.713 39.5013 129.96 39.5283C130.207 39.5554 130.501 39.5104 130.845 39.3934L131.704 39.1105L135.569 32.8887L135.928 33.3438L132.475 38.8173L132.503 38.852L138.63 36.7685L138.989 37.2235L130.972 39.8966C130.663 40.0009 130.377 40.0521 130.113 40.0503C129.848 40.0485 129.609 39.9963 129.397 39.8935C129.184 39.7948 128.999 39.6471 128.844 39.4503Z" fill="#3B4021"/>
<path d="M140.562 52.6889L147.791 46.6855L148.028 47.2095L141.462 52.607L141.484 52.6554L149.858 51.2565L150.135 51.8692L143.555 57.2344L143.577 57.2828L151.966 55.9161L152.201 56.4361L142.919 57.9008L142.657 57.3203L149.179 51.9568L149.159 51.9124L140.824 53.2693L140.562 52.6889Z" fill="#3B4021"/>
<path d="M145.913 67.265C145.766 66.7237 145.781 66.2036 145.958 65.7034C146.138 65.2026 146.45 64.7622 146.898 64.3816C147.345 64.001 147.895 63.7225 148.551 63.5456C149.209 63.3675 149.825 63.3307 150.4 63.4348C150.978 63.5388 151.47 63.7612 151.877 64.1038C152.284 64.4457 152.561 64.8874 152.707 65.428C152.854 65.9687 152.837 66.4901 152.658 66.9903C152.478 67.4911 152.165 67.9315 151.718 68.3121C151.271 68.6927 150.72 68.9718 150.065 69.1487C149.41 69.3256 148.794 69.3623 148.216 69.2589C147.638 69.1555 147.146 68.9325 146.738 68.5905C146.334 68.2473 146.059 67.8057 145.913 67.265ZM146.395 67.1342C146.519 67.5926 146.757 67.9577 147.108 68.2293C147.461 68.504 147.882 68.6753 148.375 68.7438C148.868 68.8154 149.384 68.778 149.926 68.6317C150.466 68.4859 150.93 68.2579 151.317 67.9483C151.707 67.6387 151.985 67.2775 152.152 66.8657C152.322 66.4534 152.344 66.0179 152.22 65.5595C152.096 65.101 151.858 64.7366 151.503 64.4657C151.152 64.1941 150.73 64.0228 150.237 63.9511C149.747 63.8789 149.231 63.9156 148.69 64.062C148.149 64.2084 147.684 64.4351 147.293 64.7422C146.903 65.0524 146.625 65.4131 146.458 65.8248C146.292 66.2397 146.272 66.6757 146.395 67.1342Z" fill="#3B4021"/>
<path d="M147.739 74.9497L154.458 73.9319L154.536 74.4526L153.487 74.6115L153.494 74.6601C153.86 74.7535 154.173 74.9584 154.433 75.2736C154.695 75.5888 154.86 75.9682 154.927 76.4117C154.934 76.4584 154.941 76.5051 154.948 76.5518C154.955 76.5979 154.96 76.6421 154.963 76.6833L154.426 76.7649C154.423 76.7294 154.422 76.6864 154.42 76.6359C154.422 76.588 154.417 76.5288 154.406 76.459C154.35 76.0859 154.219 75.7657 154.015 75.4985C153.81 75.2338 153.554 75.04 153.247 74.9167C152.942 74.7927 152.608 74.7579 152.246 74.8127L147.82 75.4829L147.739 74.9497Z" fill="#3B4021"/>
<path d="M151.291 82.5816L152.064 82.5417L152.07 82.6831L155.571 85.9415L155.6 86.6448L152.379 83.6536L152.355 83.6013L151.291 82.5816ZM148.62 82.2209L157.673 81.854L157.695 82.3934L148.641 82.7597L148.62 82.2209ZM148.788 86.3713L152.292 83.3602L152.666 83.7352L148.816 87.0609L148.788 86.3713Z" fill="#3B4021"/>
<path d="M150.434 122.264L150.177 122.809L141.214 122.435L141.187 122.491L147.169 129.177L146.912 129.721L138.719 125.851L138.946 125.371L145.951 128.68L145.973 128.632L140.369 122.359L140.592 121.887L148.997 122.231L149.019 122.183L142.015 118.875L142.241 118.395L150.434 122.264Z" fill="#3B4021"/>
<path d="M133.441 129.663C133.517 129.551 133.605 129.448 133.703 129.355C133.802 129.261 133.9 129.184 133.999 129.122L134.302 129.519C134.059 129.689 133.887 129.876 133.786 130.078C133.683 130.282 133.656 130.507 133.706 130.75C133.755 130.993 133.887 131.26 134.103 131.552L134.634 132.284L141.735 134.077L141.411 134.557L135.147 132.93L135.123 132.967L138.968 138.171L138.644 138.652L133.662 131.825C133.469 131.564 133.333 131.306 133.255 131.054C133.176 130.801 133.153 130.558 133.187 130.324C133.216 130.091 133.301 129.871 133.441 129.663Z" fill="#3B4021"/>
<path d="M124.388 144.848L132.303 149.912L131.876 150.297L124.739 145.681L124.7 145.717L128.576 153.27L128.076 153.72L120.966 149.081L120.927 149.117L124.777 156.694L124.353 157.076L120.138 148.677L120.611 148.251L127.703 152.837L127.739 152.804L123.914 145.275L124.388 144.848Z" fill="#3B4021"/>
<path d="M112.126 154.374C112.597 154.07 113.098 153.927 113.627 153.943C114.158 153.961 114.673 154.127 115.172 154.437C115.67 154.747 116.103 155.187 116.471 155.757C116.84 156.33 117.062 156.906 117.138 157.486C117.214 158.068 117.152 158.605 116.95 159.097C116.747 159.588 116.411 159.986 115.94 160.29C115.469 160.594 114.967 160.736 114.436 160.717C113.905 160.698 113.39 160.534 112.891 160.223C112.393 159.913 111.96 159.473 111.593 158.902C111.225 158.332 111.003 157.756 110.925 157.174C110.849 156.592 110.911 156.055 111.114 155.564C111.317 155.074 111.655 154.678 112.126 154.374ZM112.397 154.794C111.997 155.052 111.722 155.389 111.57 155.806C111.416 156.225 111.38 156.679 111.464 157.169C111.546 157.66 111.738 158.142 112.042 158.613C112.346 159.084 112.704 159.456 113.116 159.731C113.53 160.008 113.958 160.164 114.401 160.197C114.845 160.233 115.267 160.123 115.666 159.866C116.066 159.609 116.34 159.27 116.491 158.85C116.642 158.433 116.678 157.979 116.596 157.487C116.516 156.998 116.324 156.518 116.021 156.048C115.717 155.577 115.36 155.202 114.948 154.923C114.535 154.646 114.106 154.49 113.663 154.457C113.218 154.424 112.796 154.537 112.397 154.794Z" fill="#3B4021"/>
<path d="M105.359 158.448L108.369 164.541L107.897 164.774L107.427 163.822L107.383 163.843C107.405 164.221 107.305 164.581 107.083 164.924C106.863 165.27 106.551 165.542 106.15 165.741C106.107 165.762 106.065 165.783 106.023 165.803C105.98 165.825 105.94 165.843 105.902 165.858L105.661 165.371C105.694 165.357 105.734 165.343 105.782 165.326C105.828 165.313 105.882 165.291 105.946 165.259C106.284 165.092 106.55 164.87 106.743 164.594C106.933 164.32 107.039 164.016 107.064 163.686C107.089 163.357 107.021 163.029 106.859 162.701L104.875 158.687L105.359 158.448Z" fill="#3B4021"/>
<path d="M99.1661 164.152L99.4395 164.876L99.3062 164.924L97.2656 169.25L96.6041 169.49L98.4759 165.514L98.5183 165.475L99.1661 164.152ZM98.6989 161.497L101.798 170.011L101.291 170.195L98.1919 161.681L98.6989 161.497ZM94.7952 162.918L98.7288 165.342L98.4853 165.812L94.1467 163.154L94.7952 162.918Z" fill="#3B4021"/>
<mask id="mask0_76_309" style="mask-type:luminance" maskUnits="userSpaceOnUse" x="32" y="49" width="77" height="78">
<path d="M32.1725 126.096L108.79 126.096L108.79 49.4791L32.1725 49.4791L32.1725 126.096Z" fill="white"/>
</mask>
<g mask="url(#mask0_76_309)">
<path d="M92.8279 100.557C90.459 100.557 86.9222 102.898 83.9528 105.266C80.1219 108.312 76.78 111.951 74.2292 116.124C72.3169 119.252 70.4812 123.045 70.4812 126.096M70.4812 126.096C70.4812 123.045 68.6455 119.249 66.7332 116.124C64.1793 111.951 60.8368 108.312 57.0128 105.266C54.0403 102.898 50.4972 100.557 48.1345 100.557M70.4812 126.096V49.4791" stroke="#3B4021" stroke-width="0.958333"/>
</g>
</svg>
