<svg width="171" height="190" viewBox="0 0 171 190" fill="none" xmlns="http://www.w3.org/2000/svg">
<g clip-path="url(#clip0_375_1242)">
<path d="M75.4032 185.692C76.9225 185.692 78.1542 184.46 78.1542 182.941C78.1542 181.422 76.9225 180.19 75.4032 180.19C73.8839 180.19 72.6522 181.422 72.6522 182.941C72.6522 184.46 73.8839 185.692 75.4032 185.692Z" fill="#E6DDE4"/>
<path d="M60.0253 186.082L58.9968 185.847L57.4016 176.543L57.3159 176.523L51.8353 184.208L50.8068 183.973L53.0369 174.222L53.8749 174.414L52.075 182.284L52.1512 182.302L57.2415 175.183L58.0509 175.368L59.5412 183.992L59.6174 184.009L61.4174 176.138L62.2555 176.33L60.0253 186.082Z" fill="#3B4021"/>
<path d="M47.9074 169.45C48.0674 169.515 48.2107 169.591 48.3372 169.677C48.4638 169.763 48.5604 169.842 48.6272 169.91L48.1218 170.534C47.8814 170.338 47.6492 170.208 47.4252 170.146C47.2024 170.08 46.9731 170.099 46.7374 170.203C46.5029 170.305 46.2498 170.505 45.978 170.802L45.4382 171.406L45.1486 179.463L44.275 179.109L44.5991 172.383L44.5357 172.357L40.0834 177.41L39.2098 177.055L45.4176 170.196C45.6772 169.911 45.9428 169.694 46.2144 169.544C46.4873 169.39 46.7649 169.309 47.0474 169.296C47.328 169.28 47.6147 169.331 47.9074 169.45Z" fill="#3B4021"/>
<path d="M29.5571 163.123L25.7777 172.783L25.0335 172.228L28.3553 163.976L28.2926 163.929L21.336 169.473L20.4899 168.843L23.8116 160.591L23.749 160.544L16.7923 166.088L16.0442 165.531L24.2183 159.146L25.0017 159.729L21.7931 167.919L21.844 167.958L28.7737 162.54L29.5571 163.123Z" fill="#3B4021"/>
<path d="M16.581 151.823C17.0283 152.293 17.3048 152.821 17.4107 153.408C17.5144 153.993 17.4532 154.588 17.227 155.19C16.9986 155.795 16.6086 156.361 16.0573 156.887C15.5012 157.417 14.9156 157.782 14.3005 157.982C13.6831 158.184 13.0858 158.218 12.5085 158.085C11.9266 157.951 11.412 157.65 10.9648 157.181C10.5175 156.712 10.242 156.185 10.1384 155.6C10.0347 155.015 10.0971 154.42 10.3256 153.815C10.5518 153.207 10.943 152.638 11.4991 152.108C12.0504 151.582 12.6337 151.219 13.2488 151.02C13.8615 150.822 14.4587 150.79 15.0406 150.924C15.6203 151.055 16.1337 151.355 16.581 151.823ZM16.0049 152.373C15.6452 151.996 15.2394 151.773 14.7873 151.705C14.3351 151.637 13.8765 151.696 13.4114 151.883C12.9442 152.068 12.5079 152.354 12.1026 152.741C11.6973 153.127 11.3901 153.55 11.1812 154.011C10.9701 154.469 10.8867 154.927 10.9311 155.384C10.9756 155.841 11.1777 156.258 11.5373 156.635C11.8947 157.009 12.3017 157.231 12.7585 157.299C13.2129 157.365 13.675 157.305 14.1447 157.118C14.6122 156.929 15.0485 156.64 15.4538 156.254C15.859 155.867 16.1661 155.446 16.3749 154.991C16.5815 154.533 16.6614 154.076 16.6146 153.621C16.5677 153.166 16.3645 152.751 16.0049 152.373Z" fill="#3B4021"/>
<path d="M10.8579 145.431L4.83271 149.903L4.32921 149.224L5.25492 148.537L5.21709 148.486C4.82446 148.591 4.42474 148.563 4.01787 148.403C3.6064 148.242 3.26 147.971 2.97863 147.592C2.93594 147.535 2.8897 147.47 2.83993 147.397C2.79015 147.325 2.74911 147.264 2.7168 147.215L3.42679 146.688C3.44484 146.723 3.47775 146.784 3.5255 146.87C3.57326 146.956 3.63109 147.045 3.699 147.137C3.93183 147.451 4.20617 147.681 4.52192 147.828C4.83319 147.974 5.15754 148.031 5.49508 148C5.83256 147.969 6.15044 147.842 6.44851 147.621L10.3398 144.733L10.8579 145.431Z" fill="#3B4021"/>
<path d="M3.0046 138.958L2.02126 139.531L1.92433 139.362L-2.88668 138.06L-3.43188 137.106L1.31067 138.396L1.36216 138.457L3.0046 138.958ZM5.85705 138.24L-2.82887 143.202L-3.26019 142.448L5.42569 137.485L5.85705 138.24ZM3.53809 134.181L1.70384 138.739L0.872021 138.494L2.98561 133.214L3.53809 134.181Z" fill="#3B4021"/>
<path d="M3.77868 56.2292C3.46968 56.7988 3.05184 57.2242 2.52517 57.5053C2.00005 57.7835 1.41598 57.9075 0.772946 57.8773C0.127055 57.8455 -0.530789 57.6479 -1.20057 57.2846C-1.87607 56.9181 -2.40323 56.4728 -2.78205 55.9487C-3.16373 55.423 -3.37967 54.8651 -3.42988 54.2747C-3.48139 53.68 -3.35265 53.0978 -3.04364 52.5282C-2.73464 51.9585 -2.31758 51.5347 -1.79246 51.2564C-1.26735 50.9781 -0.681839 50.8549 -0.0359411 50.8867C0.611504 50.9156 1.27298 51.1134 1.94848 51.4798C2.61827 51.8431 3.14256 52.2869 3.52138 52.811C3.89734 53.3335 4.11109 53.8922 4.1626 54.487C4.21563 55.0789 4.08771 55.6596 3.77868 56.2292ZM3.07884 55.8496C3.32729 55.3916 3.41462 54.937 3.34081 54.4857C3.26702 54.0345 3.06972 53.6163 2.74892 53.2311C2.42967 52.843 2.02388 52.5154 1.53156 52.2483C1.03925 51.9812 0.541966 51.8189 0.0397315 51.7613C-0.460948 51.7009 -0.92198 51.762 -1.34336 51.9446C-1.76474 52.1272 -2.09966 52.4475 -2.3481 52.9055C-2.59499 53.3606 -2.68089 53.816 -2.60578 54.2716C-2.52912 54.7244 -2.32973 55.1457 -2.00762 55.5353C-1.68396 55.922 -1.27596 56.249 -0.783646 56.516C-0.291322 56.7831 0.203746 56.9461 0.701564 57.005C1.20094 57.0611 1.65988 56.997 2.0784 56.8128C2.49692 56.6286 2.8304 56.3076 3.07884 55.8496Z" fill="#3B4021"/>
<path d="M8.10563 48.8205L2.00146 44.4583L2.49278 43.7708L3.43067 44.441L3.46759 44.3894C3.24735 44.0479 3.1511 43.6589 3.17883 43.2224C3.20581 42.7814 3.35657 42.3689 3.6311 41.9847C3.67276 41.9264 3.72047 41.8625 3.77424 41.7928C3.82801 41.7231 3.87326 41.6654 3.90996 41.6196L4.62928 42.1337C4.60129 42.1617 4.55356 42.2116 4.48616 42.2836C4.41876 42.3554 4.35191 42.4378 4.28568 42.5305C4.05845 42.8484 3.92344 43.1802 3.8806 43.5258C3.83698 43.8669 3.88197 44.1932 4.01553 44.5048C4.14909 44.8163 4.36683 45.08 4.66889 45.2959L8.6112 48.1132L8.10563 48.8205Z" fill="#3B4021"/>
<path d="M11.857 39.359L11.0099 38.599L11.1416 38.4547L10.904 33.4763L11.6448 32.6646L11.8724 37.5742L11.8305 37.6418L11.857 39.359ZM13.4162 41.8533L6.02734 35.1096L6.61344 34.4674L14.0023 41.2111L13.4162 41.8533ZM16.5673 38.4006L11.666 38.0539L11.6438 37.187L17.3182 37.578L16.5673 38.4006Z" fill="#3B4021"/>
<path d="M35.5581 12.2817L36.5302 11.8717L43.2601 18.491L43.3411 18.4569L43.2995 9.01732L44.2717 8.60742L48.1585 17.825L47.3663 18.1591L44.2292 10.7192L44.1571 10.7496L44.1842 19.5009L43.4191 19.8235L37.1719 13.6951L37.0999 13.7255L40.2371 21.1653L39.4449 21.4993L35.5581 12.2817Z" fill="#3B4021"/>
<path d="M55.1088 18.7007C54.9411 18.7414 54.7806 18.7637 54.6274 18.7675C54.4742 18.7712 54.3502 18.7646 54.2555 18.7474L54.3021 17.9468C54.6116 17.9653 54.8755 17.9347 55.094 17.8547C55.3133 17.7779 55.4881 17.6282 55.6182 17.4055C55.7491 17.186 55.838 16.8761 55.8847 16.476L55.9704 15.6709L51.4983 8.96189L52.4143 8.73906L56.0805 14.3874L56.1469 14.3712L56.8092 7.67003L57.7252 7.44727L56.694 16.6411C56.6497 17.0239 56.5611 17.3554 56.4283 17.6358C56.2962 17.9192 56.1189 18.1483 55.8966 18.323C55.6784 18.5001 55.4157 18.626 55.1088 18.7007Z" fill="#3B4021"/>
<path d="M73.6989 13.1157L71.1233 3.06836L72.0511 3.08363L74.1762 11.7215L74.2539 11.7228L76.6617 3.15951L77.7167 3.17687L79.8412 11.8147L79.9196 11.816L82.3267 3.25274L83.26 3.26809L80.3556 13.2252L79.3783 13.2091L77.1982 4.68765L77.1349 4.6866L74.6755 13.1318L73.6989 13.1157Z" fill="#3B4021"/>
<path d="M90.8308 14.7064C90.1939 14.5871 89.6609 14.3199 89.2317 13.905C88.806 13.4906 88.5089 12.9728 88.3397 12.3515C88.1719 11.727 88.1582 11.0403 88.2985 10.2913C88.4401 9.53598 88.7022 8.89754 89.0846 8.37616C89.4676 7.85162 89.9326 7.4748 90.4786 7.24585C91.0295 7.01428 91.623 6.95816 92.2599 7.07742C92.8967 7.19674 93.4284 7.46352 93.8541 7.87796C94.2798 8.29232 94.5769 8.81178 94.7447 9.43625C94.916 10.0613 94.9311 10.7516 94.7894 11.5069C94.6491 12.2559 94.3878 12.8911 94.0054 13.4125C93.6237 13.9306 93.1574 14.3055 92.6072 14.5371C92.0598 14.7693 91.4683 14.8256 90.8308 14.7064ZM90.9779 13.9238C91.4896 14.0197 91.949 13.9633 92.3562 13.7545C92.7626 13.5458 93.1003 13.2297 93.3685 12.8061C93.6402 12.3832 93.8273 11.8965 93.9304 11.346C94.0336 10.7954 94.035 10.2723 93.9359 9.77669C93.8397 9.28158 93.6402 8.86157 93.3369 8.5166C93.0336 8.17156 92.6265 7.95113 92.1141 7.85519C91.6052 7.75994 91.1457 7.81792 90.7345 8.02926C90.3273 8.24116 89.9876 8.5602 89.7159 8.98633C89.447 9.41308 89.2613 9.90172 89.1582 10.4523C89.055 11.0028 89.0515 11.524 89.1485 12.0159C89.2482 12.5084 89.4504 12.9255 89.7537 13.2673C90.0577 13.609 90.4656 13.8279 90.9779 13.9238Z" fill="#3B4021"/>
<path d="M99.2102 16.5513L101.489 9.40283L102.293 9.65943L101.943 10.7578L102.004 10.7771C102.262 10.4627 102.602 10.2516 103.026 10.1441C103.454 10.0345 103.893 10.0513 104.343 10.1947C104.411 10.2164 104.487 10.2422 104.569 10.272C104.652 10.3019 104.721 10.3272 104.776 10.3481L104.507 11.1904C104.472 11.1723 104.41 11.1423 104.321 11.1002C104.231 11.0582 104.133 11.0198 104.024 10.9852C103.652 10.8665 103.295 10.8398 102.953 10.9051C102.615 10.9683 102.318 11.1112 102.062 11.334C101.806 11.5567 101.623 11.8449 101.51 12.1986L100.038 16.8153L99.2102 16.5513Z" fill="#3B4021"/>
<path d="M109.366 17.2173L109.829 16.1777L110.007 16.2588L114.672 14.5048L115.672 14.9608L111.069 16.6841L110.992 16.6651L109.366 17.2173ZM107.47 19.4667L111.621 10.3647L112.412 10.7255L108.262 19.8274L107.47 19.4667ZM111.724 21.4062L110.549 16.635L111.368 16.3477L112.737 21.8682L111.724 21.4062Z" fill="#3B4021"/>
<path d="M142.411 31.4644L143.099 32.2638L138.865 40.7004L138.922 40.767L147.894 37.8303L148.582 38.6298L141.002 45.1579L140.441 44.5065L146.559 39.2375L146.508 39.1783L138.188 41.8898L137.646 41.2606L141.561 33.4341L141.51 33.3748L135.392 38.644L134.831 37.9925L142.411 31.4644Z" fill="#3B4021"/>
<path d="M142.302 52.0418C142.212 51.8947 142.141 51.7489 142.091 51.6042C142.04 51.4595 142.008 51.3394 141.996 51.2441L142.771 51.0427C142.849 51.3429 142.959 51.5848 143.102 51.7682C143.242 51.9533 143.439 52.0736 143.691 52.1291C143.94 52.1863 144.262 52.1758 144.657 52.0975L145.449 51.9321L150.462 45.6167L150.956 46.4201L146.705 51.6429L146.741 51.7011L153.322 50.2749L153.815 51.0783L144.749 52.9184C144.37 52.9938 144.028 53.0112 143.72 52.9708C143.41 52.932 143.137 52.8337 142.903 52.6757C142.668 52.5224 142.467 52.311 142.302 52.0418Z" fill="#3B4021"/>
<path d="M153.322 68.0203L162.094 62.4858L162.365 63.3737L154.795 68.0467L154.818 68.1215L163.707 67.7849L164.015 68.7939L156.445 73.4672L156.469 73.5421L165.357 73.2051L165.629 74.0978L155.261 74.3894L154.976 73.4548L162.418 68.7646L162.399 68.7039L153.607 68.9549L153.322 68.0203Z" fill="#3B4021"/>
<path d="M157.066 84.8142C156.984 84.1712 157.075 83.5825 157.339 83.046C157.602 82.5137 158.004 82.0722 158.543 81.7207C159.086 81.3693 159.735 81.1451 160.491 81.0488C161.253 80.9518 161.942 81.0055 162.555 81.209C163.172 81.4133 163.673 81.74 164.059 82.1898C164.448 82.6423 164.684 83.1898 164.766 83.8328C164.847 84.4758 164.757 85.0632 164.493 85.5955C164.229 86.1285 163.826 86.5707 163.283 86.9222C162.741 87.277 162.089 87.5026 161.326 87.5996C160.57 87.6966 159.886 87.6422 159.272 87.438C158.662 87.2337 158.162 86.905 157.773 86.4524C157.384 86.0033 157.148 85.4573 157.066 84.8142ZM157.856 84.7138C157.922 85.2303 158.117 85.6505 158.44 85.9738C158.764 86.297 159.168 86.5212 159.654 86.6464C160.14 86.7743 160.66 86.8032 161.216 86.7323C161.771 86.6615 162.27 86.5026 162.711 86.2564C163.153 86.013 163.491 85.6938 163.726 85.2998C163.962 84.905 164.047 84.4497 163.981 83.9325C163.915 83.4195 163.719 82.9993 163.391 82.6733C163.065 82.3507 162.657 82.1251 162.168 81.9972C161.68 81.8727 161.158 81.8452 160.602 81.9161C160.046 81.9869 159.549 82.1444 159.111 82.3872C158.673 82.6334 158.338 82.9532 158.105 83.3473C157.874 83.7413 157.79 84.1966 157.856 84.7138Z" fill="#3B4021"/>
<path d="M157.883 93.3545L165.385 93.3291L165.388 94.1743L164.235 94.1785V94.2417C164.614 94.3903 164.919 94.6496 165.151 95.0203C165.387 95.3937 165.506 95.8167 165.508 96.2892C165.508 96.3607 165.506 96.4405 165.503 96.5285C165.501 96.6165 165.497 96.6894 165.495 96.7479L164.61 96.7513C164.616 96.7121 164.626 96.6434 164.639 96.5457C164.651 96.448 164.658 96.3421 164.658 96.2286C164.656 95.8373 164.572 95.4893 164.404 95.1839C164.241 94.8813 164.014 94.6427 163.724 94.468C163.433 94.2933 163.102 94.2067 162.73 94.208L157.885 94.2239L157.883 93.3545Z" fill="#3B4021"/>
<path d="M160.365 103.225L161.497 103.347L161.474 103.541L164.575 107.443L164.448 108.535L161.395 104.683L161.389 104.604L160.365 103.225ZM157.643 102.112L167.579 103.269L167.478 104.132L157.541 102.975L157.643 102.112ZM157.102 106.755L161.282 104.173L161.807 104.863L156.973 107.861L157.102 106.755Z" fill="#3B4021"/>
<path d="M156.947 139.048L156.397 139.949L147.069 138.508L147.022 138.583L152.571 146.22L152.021 147.121L143.482 141.91L143.93 141.176L150.822 145.382L150.863 145.315L145.728 138.228L146.161 137.519L154.811 138.844L154.852 138.777L147.96 134.571L148.408 133.837L156.947 139.048Z" fill="#3B4021"/>
<path d="M137.329 145.259C137.441 145.128 137.559 145.016 137.681 144.924C137.803 144.831 137.908 144.765 137.994 144.723L138.424 145.4C138.162 145.566 137.966 145.745 137.835 145.937C137.702 146.128 137.648 146.351 137.672 146.608C137.695 146.863 137.803 147.166 137.999 147.518L138.4 148.222L145.949 151.054L145.335 151.77L139.06 149.328L139.016 149.379L142.393 155.205L141.78 155.921L137.246 147.857C137.058 147.52 136.937 147.2 136.88 146.895C136.822 146.587 136.832 146.298 136.91 146.026C136.984 145.755 137.124 145.499 137.329 145.259Z" fill="#3B4021"/>
<path d="M125.504 160.652L133.464 167.302L132.701 167.832L125.931 162.062L125.867 162.107L128.915 170.464L128.049 171.066L121.278 165.297L121.214 165.341L124.262 173.698L123.497 174.231L120.037 164.452L120.839 163.894L127.587 169.537L127.639 169.501L124.702 161.209L125.504 160.652Z" fill="#3B4021"/>
<path d="M110.669 169.369C111.256 169.094 111.845 168.999 112.436 169.085C113.024 169.173 113.567 169.42 114.067 169.825C114.568 170.235 114.98 170.783 115.304 171.473C115.631 172.169 115.791 172.84 115.785 173.487C115.781 174.137 115.623 174.714 115.314 175.219C115.002 175.728 114.553 176.12 113.967 176.396C113.38 176.671 112.793 176.765 112.205 176.677C111.617 176.59 111.073 176.342 110.572 175.933C110.068 175.526 109.652 174.975 109.326 174.279C109.002 173.589 108.844 172.921 108.849 172.274C108.857 171.63 109.015 171.054 109.327 170.544C109.635 170.036 110.083 169.644 110.669 169.369ZM111.008 170.09C110.536 170.312 110.196 170.626 109.988 171.033C109.78 171.44 109.69 171.893 109.72 172.394C109.747 172.896 109.879 173.4 110.117 173.907C110.355 174.415 110.659 174.84 111.029 175.184C111.396 175.53 111.804 175.754 112.252 175.857C112.699 175.96 113.159 175.901 113.63 175.679C114.099 175.459 114.438 175.144 114.648 174.732C114.855 174.323 114.945 173.865 114.916 173.36C114.885 172.857 114.751 172.352 114.513 171.845C114.275 171.338 113.973 170.913 113.607 170.57C113.238 170.229 112.831 170.008 112.385 169.908C111.938 169.808 111.48 169.869 111.008 170.09Z" fill="#3B4021"/>
<path d="M102.791 172.767L105.118 179.9L104.315 180.162L103.957 179.066L103.897 179.086C103.872 179.491 103.718 179.862 103.437 180.197C103.154 180.536 102.788 180.779 102.339 180.925C102.271 180.947 102.194 180.971 102.11 180.995C102.025 181.019 101.954 181.038 101.898 181.053L101.624 180.213C101.663 180.207 101.731 180.195 101.828 180.177C101.925 180.159 102.027 180.133 102.136 180.097C102.507 179.976 102.813 179.789 103.052 179.536C103.29 179.288 103.447 178.998 103.524 178.668C103.602 178.338 103.583 177.997 103.467 177.643L101.965 173.037L102.791 172.767Z" fill="#3B4021"/>
<path d="M23.822 28.1978C25.3414 28.1978 26.573 26.9661 26.573 25.4468C26.573 23.9275 25.3414 22.6958 23.822 22.6958C22.3027 22.6958 21.071 23.9275 21.071 25.4468C21.071 26.9661 22.3027 28.1978 23.822 28.1978Z" fill="#E6DDE4"/>
<path d="M94.1594 178.159L94.3905 179.273L94.1986 179.311L91.4373 183.46L90.359 183.674L93.0886 179.586L93.1622 179.557L94.1594 178.159ZM94.3837 175.226L96.332 185.038L95.4792 185.207L93.5308 175.395L94.3837 175.226ZM89.7984 176.137L93.5391 179.323L93.0425 180.034L88.7063 176.353L89.7984 176.137Z" fill="#3B4021"/>
<path d="M126.296 27.5098C127.816 27.5098 129.047 26.2781 129.047 24.7588C129.047 23.2395 127.816 22.0078 126.296 22.0078C124.777 22.0078 123.545 23.2395 123.545 24.7588C123.545 26.2781 124.777 27.5098 126.296 27.5098Z" fill="#E6DDE4"/>
<path d="M157.933 124.482C159.452 124.482 160.684 123.251 160.684 121.731C160.684 120.212 159.452 118.98 157.933 118.98C156.414 118.98 155.182 120.212 155.182 121.731C155.182 123.251 156.414 124.482 157.933 124.482Z" fill="#E6DDE4"/>
<path d="M99.9901 108.664C97.3746 108.664 93.4696 111.248 90.1911 113.862C85.9615 117.226 82.2717 121.243 79.4554 125.851C77.344 129.304 75.3172 133.492 75.3172 136.861M75.3172 136.861C75.3172 133.492 73.2904 129.301 71.179 125.851C68.3593 121.243 64.6691 117.226 60.4465 113.862C57.165 111.248 53.2526 108.664 50.6443 108.664M75.3172 136.861V52.2686" stroke="#3B4021"/>
</g>
<defs>
<clipPath id="clip0_375_1242">
<rect width="174" height="189.818" fill="white" transform="translate(-3)"/>
</clipPath>
</defs>
</svg>
